999
dxfrw 0.6.3
  0
SECTION
  2
HEADER
  9
$ACADVER
  1
AC1021
  9
$DWGCODEPAGE
  3
ANSI_1252
  9
$INSBASE
 10
0
 20
0
 30
0
  9
$EXTMIN
 10
160
 20
-246.4521484375398
 30
0
  9
$EXTMAX
 10
645
 20
160.5478515624602
 30
0
  9
$LIMMIN
 10
0
 20
0
  9
$LIMMAX
 10
420
 20
297
  9
$ORTHOMODE
 70
    0
  9
$REGENMODE
 70
    1
  9
$FILLMODE
 70
    1
  9
$QTEXTMODE
 70
    0
  9
$MIRRTEXT
 70
    0
  9
$LTSCALE
 40
1
  9
$ATTMODE
 70
    0
  9
$TEXTSIZE
 40
2.5
  9
$TRACEWID
 40
15.68
  9
$TEXTSTYLE
  7
STANDARD
  9
$CLAYER
  8
0
  9
$CELTYPE
  6
BYLAYER
  9
$CECOLOR
 62
  256
  9
$CELTSCALE
 40
1
  9
$DISPSILH
 70
    0
  9
$DIMSCALE
 40
2.5
  9
$DIMASZ
 40
2.5
  9
$DIMEXO
 40
0.625
  9
$DIMDLI
 40
3.75
  9
$DIMRND
 40
0
  9
$DIMDLE
 40
0
  9
$DIMEXE
 40
1.25
  9
$DIMTP
 40
0
  9
$DIMTM
 40
0
  9
$DIMTXT
 40
2.5
  9
$DIMCEN
 40
2.5
  9
$DIMTSZ
 40
0
  9
$DIMTOL
 70
    0
  9
$DIMLIM
 70
    0
  9
$DIMTIH
 70
    0
  9
$DIMTOH
 70
    0
  9
$DIMSE1
 70
    0
  9
$DIMSE2
 70
    0
  9
$DIMTAD
 70
    1
  9
$DIMZIN
 70
    8
  9
$DIMBLK
  1

  9
$DIMASO
 70
    1
  9
$DIMSHO
 70
    1
  9
$DIMPOST
  1

  9
$DIMAPOST
  1

  9
$DIMALT
 70
    0
  9
$DIMALTD
 70
    3
  9
$DIMALTF
 40
0.03937
  9
$DIMLFAC
 40
1
  9
$DIMTOFL
 70
    1
  9
$DIMTVP
 40
0
  9
$DIMTIX
 70
    0
  9
$DIMSOXD
 70
    0
  9
$DIMSAH
 70
    0
  9
$DIMBLK1
  1

  9
$DIMBLK2
  1

  9
$DIMSTYLE
  2
STANDARD
  9
$DIMCLRD
 70
    0
  9
$DIMCLRE
 70
    0
  9
$DIMCLRT
 70
    0
  9
$DIMTFAC
 40
1
  9
$DIMGAP
 40
0.625
  9
$DIMJUST
 70
    0
  9
$DIMSD1
 70
    0
  9
$DIMSD2
 70
    0
  9
$DIMTOLJ
 70
    0
  9
$DIMTZIN
 70
    8
  9
$DIMALTZ
 70
    0
  9
$DIMALTTZ
 70
    0
  9
$DIMUPT
 70
    0
  9
$DIMDEC
 70
    4
  9
$DIMTDEC
 70
    2
  9
$DIMALTU
 70
    2
  9
$DIMALTTD
 70
    3
  9
$DIMTXSTY
  7
standard
  9
$DIMAUNIT
 70
    0
  9
$DIMADEC
 70
    2
  9
$DIMALTRND
 40
0
  9
$DIMAZIN
 70
    0
  9
$DIMDSEP
 70
   44
  9
$DIMATFIT
 70
    3
  9
$DIMFRAC
 70
    0
  9
$DIMLDRBLK
  1
STANDARD
  9
$DIMLUNIT
 70
    2
  9
$DIMLWD
 70
   -2
  9
$DIMLWE
 70
   -2
  9
$DIMTMOVE
 70
    0
  9
$DIMFXL
 40
1
  9
$DIMFXLON
 70
    0
  9
$DIMJOGANG
 40
0.7854
  9
$DIMTFILL
 70
    0
  9
$DIMTFILLCLR
 70
    0
  9
$DIMARCSYM
 70
    0
  9
$DIMLTYPE
  6

  9
$DIMLTEX1
  6

  9
$DIMLTEX2
  6

  9
$LUNITS
 70
    2
  9
$LUPREC
 70
    4
  9
$SKETCHINC
 40
1
  9
$FILLETRAD
 40
0
  9
$AUNITS
 70
    0
  9
$AUPREC
 70
    2
  9
$MENU
  1
.
  9
$ELEVATION
 40
0
  9
$PELEVATION
 40
0
  9
$THICKNESS
 40
0
  9
$LIMCHECK
 70
    0
  9
$CHAMFERA
 40
0
  9
$CHAMFERB
 40
0
  9
$CHAMFERC
 40
0
  9
$CHAMFERD
 40
0
  9
$SKPOLY
 70
    0
  9
$USRTIMER
 70
    1
  9
$ANGBASE
 50
0
  9
$ANGDIR
 70
    0
  9
$PDMODE
 70
   34
  9
$PDSIZE
 40
0
  9
$PLINEWID
 40
0
  9
$SPLFRAME
 70
    0
  9
$SPLINETYPE
 70
    2
  9
$SPLINESEGS
 70
    8
  9
$HANDSEED
  5
20000
  9
$SURFTAB1
 70
    6
  9
$SURFTAB2
 70
    6
  9
$SURFTYPE
 70
    6
  9
$SURFU
 70
    6
  9
$SURFV
 70
    6
  9
$UCSBASE
  2

  9
$UCSNAME
  2

  9
$UCSORG
 10
0
 20
0
 30
0
  9
$UCSXDIR
 10
1
 20
0
 30
0
  9
$UCSYDIR
 10
0
 20
1
 30
0
  9
$UCSORTHOREF
  2

  9
$UCSORTHOVIEW
 70
    0
  9
$UCSORGTOP
 10
0
 20
0
 30
0
  9
$UCSORGBOTTOM
 10
0
 20
0
 30
0
  9
$UCSORGLEFT
 10
0
 20
0
 30
0
  9
$UCSORGRIGHT
 10
0
 20
0
 30
0
  9
$UCSORGFRONT
 10
0
 20
0
 30
0
  9
$UCSORGBACK
 10
0
 20
0
 30
0
  9
$PUCSBASE
  2

  9
$PUCSNAME
  2

  9
$PUCSORG
 10
0
 20
0
 30
0
  9
$PUCSXDIR
 10
1
 20
0
 30
0
  9
$PUCSYDIR
 10
0
 20
1
 30
0
  9
$PUCSORTHOREF
  2

  9
$PUCSORTHOVIEW
 70
    0
  9
$PUCSORGTOP
 10
0
 20
0
 30
0
  9
$PUCSORGBOTTOM
 10
0
 20
0
 30
0
  9
$PUCSORGLEFT
 10
0
 20
0
 30
0
  9
$PUCSORGRIGHT
 10
0
 20
0
 30
0
  9
$PUCSORGFRONT
 10
0
 20
0
 30
0
  9
$PUCSORGBACK
 10
0
 20
0
 30
0
  9
$USERI1
 70
    0
  9
$USERI2
 70
    0
  9
$USERI3
 70
    0
  9
$USERI4
 70
    0
  9
$USERI5
 70
    0
  9
$USERR1
 40
0
  9
$USERR2
 40
0
  9
$USERR3
 40
0
  9
$USERR4
 40
0
  9
$USERR5
 40
0
  9
$WORLDVIEW
 70
    1
  9
$SHADEDGE
 70
    3
  9
$SHADEDIF
 70
   70
  9
$TILEMODE
 70
    1
  9
$MAXACTVP
 70
   64
  9
$PINSBASE
 10
-218.5178675529328
 20
332.2696533677455
 30
0
  9
$PLIMCHECK
 70
    0
  9
$PEXTMIN
 10
0
 20
0
 30
0
  9
$PEXTMAX
 10
0
 20
0
 30
0
  9
$GRIDMODE
 70
    1
  9
$SNAPSTYLE
 70
    0
  9
$GRIDUNIT
 10
0
 20
0
  9
$PLIMMIN
 10
0
 20
0
  9
$PLIMMAX
 10
1189
 20
841
  9
$UNITMODE
 70
    0
  9
$VISRETAIN
 70
    1
  9
$PLINEGEN
 70
    0
  9
$PSLTSCALE
 70
    1
  9
$TREEDEPTH
 70
 3020
  9
$CMLSTYLE
  2
Standard
  9
$CMLJUST
 70
    0
  9
$CMLSCALE
 40
20
  9
$PROXYGRAPHICS
 70
    1
  9
$MEASUREMENT
 70
    1
  9
$CELWEIGHT
370
   -1
  9
$ENDCAPS
280
    0
  9
$JOINSTYLE
280
    0
  9
$LWDISPLAY
290
    0
  9
$INSUNITS
 70
    4
  9
$HYPERLINKBASE
  1

  9
$STYLESHEET
  1

  9
$XEDIT
290
    1
  9
$CEPSNTYPE
380
    0
  9
$PSTYLEMODE
290
    1
  9
$EXTNAMES
290
    1
  9
$PSVPSCALE
 40
2.24475
  9
$OLESTARTUP
290
    0
  9
$SORTENTS
280
  127
  9
$INDEXCTL
280
    0
  9
$HIDETEXT
280
    1
  9
$XCLIPFRAME
290
    0
  9
$HALOGAP
280
    0
  9
$OBSCOLOR
 70
  257
  9
$OBSLTYPE
280
    0
  9
$INTERSECTIONDISPLAY
280
    0
  9
$INTERSECTIONCOLOR
 70
  257
  9
$DIMASSOC
280
    1
  9
$PROJECTNAME
  1

  9
$CAMERADISPLAY
290
    0
  9
$LENSLENGTH
 40
50
  9
$CAMERAHEIGHT
 40
0
  9
$STEPSPERSEC
 40
2
  9
$STEPSIZE
 40
50
  9
$3DDWFPREC
 40
2
  9
$PSOLWIDTH
 40
5
  9
$PSOLHEIGHT
 40
80
  9
$LOFTANG1
 40
1.570796326794897
  9
$LOFTANG2
 40
1.570796326794897
  9
$LOFTMAG1
 40
0
  9
$LOFTMAG2
 40
0
  9
$LOFTPARAM
 70
    7
  9
$LOFTNORMALS
280
    1
  9
$LATITUDE
 40
1
  9
$LONGITUDE
 40
1
  9
$NORTHDIRECTION
 40
0
  9
$TIMEZONE
 70
-8000
  9
$LIGHTGLYPHDISPLAY
280
    1
  9
$TILEMODELIGHTSYNCH
280
    1
  9
$SOLIDHIST
280
    1
  9
$SHOWHIST
280
    1
  9
$DWFFRAME
280
    2
  9
$DGNFRAME
280
    0
  9
$REALWORLDSCALE
290
    1
  9
$INTERFERECOLOR
 62
    1
  9
$CSHADOW
280
    0
  9
$SHADOWPLANELOCATION
 40
0
  0
ENDSEC
  0
SECTION
  2
CLASSES
  0
ENDSEC
  0
SECTION
  2
TABLES
  0
TABLE
  2
VPORT
  5
8
330
0
100
AcDbSymbolTable
 70
    1
  0
VPORT
  5
31
330
2
100
AcDbSymbolTableRecord
100
AcDbViewportTableRecord
  2
*ACTIVE
 70
    0
 10
0
 20
0
 11
1
 21
1
 12
441.3604736338649
 22
138.4735107425177
 13
0
 23
0
 14
10
 24
10
 15
10
 25
10
 16
0
 26
0
 36
1
 17
0
 27
0
 37
0
 40
598.1445312514263
 41
1.963010204081633
 42
50
 43
0
 44
0
 50
0
 51
0
 71
    0
 72
  100
 73
    1
 74
    3
 75
    0
 76
    1
 77
    0
 78
    0
281
    0
 65
    1
110
0
120
0
130
0
111
1
121
0
131
0
112
0
122
1
132
0
 79
    0
146
0
348
10020
 60
    7
 61
    5
292
1
282
    1
141
0
142
0
 63
  250
421
3358443
  0
ENDTAB
  0
TABLE
  2
LTYPE
  5
5
330
0
100
AcDbSymbolTable
 70
    4
  0
LTYPE
  5
14
330
5
100
AcDbSymbolTableRecord
100
AcDbLinetypeTableRecord
  2
ByBlock
 70
    0
  3

 72
   65
 73
    0
 40
0
  0
LTYPE
  5
15
330
5
100
AcDbSymbolTableRecord
100
AcDbLinetypeTableRecord
  2
ByLayer
 70
    0
  3

 72
   65
 73
    0
 40
0
  0
LTYPE
  5
16
330
5
100
AcDbSymbolTableRecord
100
AcDbLinetypeTableRecord
  2
Continuous
 70
    0
  3
Solid line
 72
   65
 73
    0
 40
0
  0
LTYPE
  5
32
330
5
100
AcDbSymbolTableRecord
100
AcDbLinetypeTableRecord
  2
DOT
 70
    0
  3
Dot . . . . . . . . . . . . . . . . . . . . . .
 72
   65
 73
    2
 40
6.35
 49
0
 74
    0
 49
-6.35
 74
    0
  0
LTYPE
  5
33
330
5
100
AcDbSymbolTableRecord
100
AcDbLinetypeTableRecord
  2
DOTTINY
 70
    0
  3
Dot (.15x) .....................................
 72
   65
 73
    2
 40
0.9525
 49
0
 74
    0
 49
-0.9525
 74
    0
  0
LTYPE
  5
34
330
5
100
AcDbSymbolTableRecord
100
AcDbLinetypeTableRecord
  2
DOT2
 70
    0
  3
Dot (.5x) .....................................
 72
   65
 73
    2
 40
3.175
 49
0
 74
    0
 49
-3.175
 74
    0
  0
LTYPE
  5
35
330
5
100
AcDbSymbolTableRecord
100
AcDbLinetypeTableRecord
  2
DOTX2
 70
    0
  3
Dot (2x) .  .  .  .  .  .  .  .  .  .  .  .  .
 72
   65
 73
    2
 40
12.7
 49
0
 74
    0
 49
-12.7
 74
    0
  0
LTYPE
  5
36
330
5
100
AcDbSymbolTableRecord
100
AcDbLinetypeTableRecord
  2
DASHED
 70
    0
  3
Dashed _ _ _ _ _ _ _ _ _ _ _ _ _ _ _ _ _
 72
   65
 73
    2
 40
19.05
 49
12.7
 74
    0
 49
-6.35
 74
    0
  0
LTYPE
  5
37
330
5
100
AcDbSymbolTableRecord
100
AcDbLinetypeTableRecord
  2
DASHEDTINY
 70
    0
  3
Dashed (.15x) _ _ _ _ _ _ _ _ _ _ _ _ _ _ _ _ _
 72
   65
 73
    2
 40
2.8575
 49
1.905
 74
    0
 49
-0.9525
 74
    0
  0
LTYPE
  5
38
330
5
100
AcDbSymbolTableRecord
100
AcDbLinetypeTableRecord
  2
DASHED2
 70
    0
  3
Dashed (.5x) _ _ _ _ _ _ _ _ _ _ _ _ _ _ _ _ _
 72
   65
 73
    2
 40
9.524999999999999
 49
6.35
 74
    0
 49
-3.175
 74
    0
  0
LTYPE
  5
39
330
5
100
AcDbSymbolTableRecord
100
AcDbLinetypeTableRecord
  2
DASHEDX2
 70
    0
  3
Dashed (2x) ____  ____  ____  ____  ____  ___
 72
   65
 73
    2
 40
38.09999999999999
 49
25.4
 74
    0
 49
-12.7
 74
    0
  0
LTYPE
  5
3A
330
5
100
AcDbSymbolTableRecord
100
AcDbLinetypeTableRecord
  2
DASHDOT
 70
    0
  3
Dash dot __ . __ . __ . __ . __ . __ . __ . __
 72
   65
 73
    4
 40
25.4
 49
12.7
 74
    0
 49
-6.35
 74
    0
 49
0
 74
    0
 49
-6.35
 74
    0
  0
LTYPE
  5
3B
330
5
100
AcDbSymbolTableRecord
100
AcDbLinetypeTableRecord
  2
DASHDOTTINY
 70
    0
  3
Dash dot (.15x) _._._._._._._._._._._._._._._.
 72
   65
 73
    4
 40
3.81
 49
1.905
 74
    0
 49
-0.9525
 74
    0
 49
0
 74
    0
 49
-0.9525
 74
    0
  0
LTYPE
  5
3C
330
5
100
AcDbSymbolTableRecord
100
AcDbLinetypeTableRecord
  2
DASHDOT2
 70
    0
  3
Dash dot (.5x) _._._._._._._._._._._._._._._.
 72
   65
 73
    4
 40
12.7
 49
6.35
 74
    0
 49
-3.175
 74
    0
 49
0
 74
    0
 49
-3.175
 74
    0
  0
LTYPE
  5
3D
330
5
100
AcDbSymbolTableRecord
100
AcDbLinetypeTableRecord
  2
DASHDOTX2
 70
    0
  3
Dash dot (2x) ____  .  ____  .  ____  .  ___
 72
   65
 73
    4
 40
50.8
 49
25.4
 74
    0
 49
-12.7
 74
    0
 49
0
 74
    0
 49
-12.7
 74
    0
  0
LTYPE
  5
3E
330
5
100
AcDbSymbolTableRecord
100
AcDbLinetypeTableRecord
  2
DIVIDE
 70
    0
  3
Divide ____ . . ____ . . ____ . . ____ . . ____
 72
   65
 73
    6
 40
31.75
 49
12.7
 74
    0
 49
-6.35
 74
    0
 49
0
 74
    0
 49
-6.35
 74
    0
 49
0
 74
    0
 49
-6.35
 74
    0
  0
LTYPE
  5
3F
330
5
100
AcDbSymbolTableRecord
100
AcDbLinetypeTableRecord
  2
DIVIDETINY
 70
    0
  3
Divide (.15x) __..__..__..__..__..__..__..__.._
 72
   65
 73
    6
 40
4.7625
 49
1.905
 74
    0
 49
-0.9525
 74
    0
 49
0
 74
    0
 49
-0.9525
 74
    0
 49
0
 74
    0
 49
-0.9525
 74
    0
  0
LTYPE
  5
40
330
5
100
AcDbSymbolTableRecord
100
AcDbLinetypeTableRecord
  2
DIVIDE2
 70
    0
  3
Divide (.5x) __..__..__..__..__..__..__..__.._
 72
   65
 73
    6
 40
15.875
 49
6.35
 74
    0
 49
-3.175
 74
    0
 49
0
 74
    0
 49
-3.175
 74
    0
 49
0
 74
    0
 49
-3.175
 74
    0
  0
LTYPE
  5
41
330
5
100
AcDbSymbolTableRecord
100
AcDbLinetypeTableRecord
  2
DIVIDEX2
 70
    0
  3
Divide (2x) ________  .  .  ________  .  .  _
 72
   65
 73
    6
 40
63.5
 49
25.4
 74
    0
 49
-12.7
 74
    0
 49
0
 74
    0
 49
-12.7
 74
    0
 49
0
 74
    0
 49
-12.7
 74
    0
  0
LTYPE
  5
42
330
5
100
AcDbSymbolTableRecord
100
AcDbLinetypeTableRecord
  2
BORDER
 70
    0
  3
Border __ __ . __ __ . __ __ . __ __ . __ __ .
 72
   65
 73
    6
 40
44.45
 49
12.7
 74
    0
 49
-6.35
 74
    0
 49
12.7
 74
    0
 49
-6.35
 74
    0
 49
0
 74
    0
 49
-6.35
 74
    0
  0
LTYPE
  5
43
330
5
100
AcDbSymbolTableRecord
100
AcDbLinetypeTableRecord
  2
BORDERTINY
 70
    0
  3
Border (.15x) __.__.__.__.__.__.__.__.__.__.__.
 72
   65
 73
    6
 40
6.6675
 49
1.905
 74
    0
 49
-0.9525
 74
    0
 49
1.905
 74
    0
 49
-0.9525
 74
    0
 49
0
 74
    0
 49
-0.9525
 74
    0
  0
LTYPE
  5
44
330
5
100
AcDbSymbolTableRecord
100
AcDbLinetypeTableRecord
  2
BORDER2
 70
    0
  3
Border (.5x) __.__.__.__.__.__.__.__.__.__.__.
 72
   65
 73
    6
 40
22.225
 49
6.35
 74
    0
 49
-3.175
 74
    0
 49
6.35
 74
    0
 49
-3.175
 74
    0
 49
0
 74
    0
 49
-3.175
 74
    0
  0
LTYPE
  5
45
330
5
100
AcDbSymbolTableRecord
100
AcDbLinetypeTableRecord
  2
BORDERX2
 70
    0
  3
Border (2x) ____  ____  .  ____  ____  .  ___
 72
   65
 73
    6
 40
88.89999999999999
 49
25.4
 74
    0
 49
-12.7
 74
    0
 49
25.4
 74
    0
 49
-12.7
 74
    0
 49
0
 74
    0
 49
-12.7
 74
    0
  0
LTYPE
  5
46
330
5
100
AcDbSymbolTableRecord
100
AcDbLinetypeTableRecord
  2
CENTER
 70
    0
  3
Center ____ _ ____ _ ____ _ ____ _ ____ _ ____
 72
   65
 73
    4
 40
50.8
 49
31.75
 74
    0
 49
-6.35
 74
    0
 49
6.35
 74
    0
 49
-6.35
 74
    0
  0
LTYPE
  5
47
330
5
100
AcDbSymbolTableRecord
100
AcDbLinetypeTableRecord
  2
CENTERTINY
 70
    0
  3
Center (.15x) ___ _ ___ _ ___ _ ___ _ ___ _ ___
 72
   65
 73
    4
 40
7.619999999999999
 49
4.7625
 74
    0
 49
-0.9525
 74
    0
 49
0.9525
 74
    0
 49
-0.9525
 74
    0
  0
LTYPE
  5
48
330
5
100
AcDbSymbolTableRecord
100
AcDbLinetypeTableRecord
  2
CENTER2
 70
    0
  3
Center (.5x) ___ _ ___ _ ___ _ ___ _ ___ _ ___
 72
   65
 73
    4
 40
28.575
 49
19.05
 74
    0
 49
-3.175
 74
    0
 49
3.175
 74
    0
 49
-3.175
 74
    0
  0
LTYPE
  5
49
330
5
100
AcDbSymbolTableRecord
100
AcDbLinetypeTableRecord
  2
CENTERX2
 70
    0
  3
Center (2x) ________  __  ________  __  _____
 72
   65
 73
    4
 40
101.6
 49
63.5
 74
    0
 49
-12.7
 74
    0
 49
12.7
 74
    0
 49
-12.7
 74
    0
  0
ENDTAB
  0
TABLE
  2
LAYER
  5
2
330
0
100
AcDbSymbolTable
 70
    1
  0
LAYER
  5
10
330
2
100
AcDbSymbolTableRecord
100
AcDbLayerTableRecord
  2
0
 70
    4
 62
    7
  6
CONTINUOUS
370
    0
390
F
  0
LAYER
  5
4A
330
2
100
AcDbSymbolTableRecord
100
AcDbLayerTableRecord
  2
First Cut
 70
    4
 62
    3
  6
CONTINUOUS
370
    0
390
F
  0
LAYER
  5
4B
330
2
100
AcDbSymbolTableRecord
100
AcDbLayerTableRecord
  2
Labels
 70
    4
 62
    7
  6
CONTINUOUS
370
    0
390
F
  0
LAYER
  5
4C
330
2
100
AcDbSymbolTableRecord
100
AcDbLayerTableRecord
  2
Tester
 70
    4
 62
    7
  6
CONTINUOUS
370
    0
390
F
  0
ENDTAB
  0
TABLE
  2
STYLE
  5
3
330
0
100
AcDbSymbolTable
 70
    3
  0
STYLE
  5
4D
330
2
100
AcDbSymbolTableRecord
100
AcDbTextStyleTableRecord
  2
opengosttypea-regular
 70
    0
 40
0
 41
1
 50
0
 71
    0
 42
1
  3
opengosttypea-regular
  4

  0
STYLE
  5
4E
330
2
100
AcDbSymbolTableRecord
100
AcDbTextStyleTableRecord
  2
OpenGostTypeA-Regular
 70
    0
 40
0
 41
1
 50
0
 71
    0
 42
1
  3
OpenGostTypeA-Regular
  4

  0
STYLE
  5
4F
330
2
100
AcDbSymbolTableRecord
100
AcDbTextStyleTableRecord
  2
Standard
 70
    0
 40
0
 41
1
 50
0
 71
    0
 42
1
  3
txt
  4

  0
ENDTAB
  0
TABLE
  2
VIEW
  5
6
330
0
100
AcDbSymbolTable
 70
    0
  0
ENDTAB
  0
TABLE
  2
UCS
  5
7
330
0
100
AcDbSymbolTable
 70
    0
  0
ENDTAB
  0
TABLE
  2
APPID
  5
9
330
0
100
AcDbSymbolTable
 70
    1
  0
APPID
  5
12
330
9
100
AcDbSymbolTableRecord
100
AcDbRegAppTableRecord
  2
ACAD
 70
    0
  0
APPID
  5
50
330
9
100
AcDbSymbolTableRecord
100
AcDbRegAppTableRecord
  2
LibreCad
 70
    0
  0
ENDTAB
  0
TABLE
  2
DIMSTYLE
  5
A
330
0
100
AcDbSymbolTable
 70
    1
100
AcDbDimStyleTable
 71
    1
  0
DIMSTYLE
105
51
330
A
100
AcDbSymbolTableRecord
100
AcDbDimStyleTableRecord
  2
Standard
 70
    0
 40
2.5
 41
2.5
 42
0.625
 43
0.38
 44
1.25
 45
0
 46
0
 47
0
 48
0
 49
1
140
2.5
141
0.09
142
0
143
25.4
144
1
145
0
146
1
147
0.625
148
0
 71
    0
 72
    0
 73
    0
 74
    1
 75
    0
 76
    0
 77
    0
 78
    8
 79
    0
170
    0
171
    2
172
    0
173
    0
174
    0
175
    0
176
    0
177
    0
178
    0
179
    2
271
    4
272
    4
273
    2
274
    2
275
    0
276
    0
277
    2
278
   44
279
    0
280
    0
281
    0
282
    0
283
    1
284
    0
285
    0
286
    0
288
    0
289
    3
340
standard
341

371
   -2
372
   -2
  0
ENDTAB
  0
TABLE
  2
BLOCK_RECORD
  5
1
330
0
100
AcDbSymbolTable
 70
    2
  0
BLOCK_RECORD
  5
1F
330
1
100
AcDbSymbolTableRecord
100
AcDbBlockTableRecord
  2
*Model_Space
 70
    0
280
    1
281
    0
  0
BLOCK_RECORD
  5
1E
330
1
100
AcDbSymbolTableRecord
100
AcDbBlockTableRecord
  2
*Paper_Space
 70
    0
280
    1
281
    0
  0
BLOCK_RECORD
  5
52
330
1
100
AcDbSymbolTableRecord
100
AcDbBlockTableRecord
  2
LockTab
 70
    0
280
    1
281
    0
  0
ENDTAB
  0
ENDSEC
  0
SECTION
  2
BLOCKS
  0
BLOCK
  5
20
330
1F
100
AcDbEntity
  8
0
100
AcDbBlockBegin
  2
*Model_Space
 70
    0
 10
0
 20
0
 30
0
  3
*Model_Space
  1

  0
ENDBLK
  5
21
330
1F
100
AcDbEntity
  8
0
100
AcDbBlockEnd
  0
BLOCK
  5
1C
330
1B
100
AcDbEntity
  8
0
100
AcDbBlockBegin
  2
*Paper_Space
 70
    0
 10
0
 20
0
 30
0
  3
*Paper_Space
  1

  0
ENDBLK
  5
1D
330
1F
100
AcDbEntity
  8
0
100
AcDbBlockEnd
  0
BLOCK
  5
53
330
52
100
AcDbEntity
  8
0
100
AcDbBlockBegin
  2
LockTab
 70
    0
 10
0
 20
0
  3
LockTab
  1

  0
LINE
  5
55
100
AcDbEntity
  8
0
  6
ByLayer
 62
  256
370
   -1
100
AcDbLine
 10
-7.5
 20
33.5
 11
-7.5
 21
28.5
  0
LINE
  5
56
100
AcDbEntity
  8
0
  6
ByLayer
 62
  256
370
   -1
100
AcDbLine
 10
-7.5
 20
28.5
 11
0
 21
28.5
  0
LINE
  5
57
100
AcDbEntity
  8
0
  6
ByLayer
 62
  256
370
   -1
100
AcDbLine
 10
0
 20
28.5
 11
0
 21
5
  0
LINE
  5
58
100
AcDbEntity
  8
0
  6
ByLayer
 62
  256
370
   -1
100
AcDbLine
 10
0
 20
5
 11
-7.5
 21
5
  0
LINE
  5
59
100
AcDbEntity
  8
0
  6
ByLayer
 62
  256
370
   -1
100
AcDbLine
 10
-7.5
 20
5
 11
-7.5
 21
0
  0
LINE
  5
5A
100
AcDbEntity
  8
0
  6
ByLayer
 62
  256
370
   -1
100
AcDbLine
 10
-7.5
 20
0
 11
0
 21
0
  0
LINE
  5
5B
100
AcDbEntity
  8
0
  6
ByLayer
 62
  256
370
   -1
100
AcDbLine
 10
0
 20
0
 11
0
 21
-60.5
  0
LINE
  5
5C
100
AcDbEntity
  8
0
  6
ByLayer
 62
  256
370
   -1
100
AcDbLine
 10
0
 20
-60.5
 11
-7.5
 21
-60.5
  0
LINE
  5
5D
100
AcDbEntity
  8
0
  6
ByLayer
 62
  256
370
   -1
100
AcDbLine
 10
-7.5
 20
-60.5
 11
-7.5
 21
-65.5
  0
LINE
  5
5E
100
AcDbEntity
  8
0
  6
ByLayer
 62
  256
370
   -1
100
AcDbLine
 10
-7.5
 20
-65.5
 11
7.5
 21
-65.5
  0
LINE
  5
5F
100
AcDbEntity
  8
0
  6
ByLayer
 62
  256
370
   -1
100
AcDbLine
 10
7.5
 20
-65.5
 11
7.5
 21
33.5
  0
LINE
  5
60
100
AcDbEntity
  8
0
  6
ByLayer
 62
  256
370
   -1
100
AcDbLine
 10
7.5
 20
33.5
 11
-7.5
 21
33.5
  0
ENDBLK
  5
54
330
52
100
AcDbEntity
  8
0
100
AcDbBlockEnd
  0
ENDSEC
  0
SECTION
  2
ENTITIES
  0
MTEXT
  5
61
100
AcDbEntity
  8
Labels
  6
ByLayer
 62
  256
370
   -1
100
AcDbMText
 10
270.7500000001706
 20
-88.66992187497566
 30
0
 40
15
 41
66.66666666666737
 71
    5
 72
    1
  1
Bottom
  7
opengosttypea-regular
210
0
220
0
230
1
 50
0
 73
    2
 44
1
  0
MTEXT
  5
62
100
AcDbEntity
  8
Labels
  6
ByLayer
 62
  256
370
   -1
100
AcDbMText
 10
389.3750000008822
 20
-203.6111111115669
 30
0
 40
5
 41
13.33333333333333
 71
    5
 72
    1
  1
Lock
  7
opengosttypea-regular
210
0
220
0
230
1
 50
90
 73
    2
 44
1
  0
MTEXT
  5
63
100
AcDbEntity
  8
Labels
  6
ByLayer
 62
  256
370
   -1
100
AcDbMText
 10
420.937500000942
 20
-201.7013888893454
 30
0
 40
5
 41
13.33333333333333
 71
    5
 72
    1
  1
Lock
  7
opengosttypea-regular
210
0
220
0
230
1
 50
270
 73
    2
 44
1
  0
MTEXT
  5
64
100
AcDbEntity
  8
Labels
  6
ByLayer
 62
  256
370
   -1
100
AcDbMText
 10
537.9687500001662
 20
-110.4052734374712
 30
0
 40
10
 41
37.77777777777777
 71
    5
 72
    1
  1
Middle
  7
opengosttypea-regular
210
0
220
0
230
1
 50
0
 73
    2
 44
1
  0
MTEXT
  5
65
100
AcDbEntity
  8
Labels
  6
ByLayer
 62
  256
370
   -1
100
AcDbMText
 10
269.5133750001604
 20
-24.70214843755929
 30
0
 40
10
 41
24.44444232442295
 71
    5
 72
    1
  1
Side
  7
opengosttypea-regular
210
0
220
0
230
1
 50
0
 73
    2
 44
1
  0
MTEXT
  5
66
100
AcDbEntity
  8
Labels
  6
ByLayer
 62
  256
370
   -1
100
AcDbMText
 10
258.7890635606159
 20
62.98339843763561
 30
0
 40
10
 41
64.44444232442387
 71
    5
 72
    1
  1
Separator
  7
opengosttypea-regular
210
0
220
0
230
1
 50
0
 73
    2
 44
1
  0
MTEXT
  5
67
100
AcDbEntity
  8
Labels
  6
ByLayer
 62
  256
370
   -1
100
AcDbMText
 10
238.037108315546
 20
146.367187500354
 30
0
 40
10
 41
24.44444232442295
 71
    5
 72
    1
  1
Side
  7

210
0
220
0
230
1
 50
180
 73
    2
 44
1
  0
MTEXT
  5
68
100
AcDbEntity
  8
Labels
  6
ByLayer
 62
  256
370
   -1
100
AcDbMText
 10
270.1817369462679
 20
-206.5927734374663
 30
0
 40
10
 41
21.11111111111111
 71
    5
 72
    1
  1
Top
  7
opengosttypea-regular
210
0
220
0
230
1
 50
0
 73
    2
 44
1
  0
MTEXT
  5
69
100
AcDbEntity
  8
Labels
  6
ByLayer
 62
  256
370
   -1
100
AcDbMText
 10
510.8124999999196
 20
-148.405273437522
 30
0
 40
10
 41
33.3333333333338
 71
    5
 72
    1
  1
Front
  7
opengosttypea-regular
210
0
220
0
230
1
 50
360
 73
    2
 44
1
  0
LINE
  5
6A
100
AcDbEntity
  8
First Cut
  6
ByLayer
 62
  256
370
   -1
100
AcDbLine
 10
420
 20
-147.4521484375398
 11
412.5
 21
-147.4521484375398
  0
LINE
  5
6B
100
AcDbEntity
  8
First Cut
  6
ByLayer
 62
  256
370
   -1
100
AcDbLine
 10
412.5
 20
-147.4521484375398
 11
412.5
 21
-170.9521484375398
  0
LINE
  5
6C
100
AcDbEntity
  8
First Cut
  6
ByLayer
 62
  256
370
   -1
100
AcDbLine
 10
412.5
 20
-170.9521484375398
 11
420
 21
-170.9521484375398
  0
LINE
  5
6D
100
AcDbEntity
  8
First Cut
  6
ByLayer
 62
  256
370
   -1
100
AcDbLine
 10
420
 20
-175.9521484375398
 11
412.5
 21
-175.9521484375398
  0
LINE
  5
6E
100
AcDbEntity
  8
First Cut
  6
ByLayer
 62
  256
370
   -1
100
AcDbLine
 10
412.5
 20
-175.9521484375398
 11
412.5
 21
-236.4521484375398
  0
LINE
  5
6F
100
AcDbEntity
  8
First Cut
  6
ByLayer
 62
  256
370
   -1
100
AcDbLine
 10
412.5
 20
-236.4521484375398
 11
420
 21
-236.4521484375398
  0
LINE
  5
70
100
AcDbEntity
  8
First Cut
  6
ByLayer
 62
  256
370
   -1
100
AcDbLine
 10
405
 20
-142.4521484375398
 11
420
 21
-142.4521484375398
  0
LINE
  5
71
100
AcDbEntity
  8
First Cut
  6
ByLayer
 62
  256
370
   -1
100
AcDbLine
 10
390
 20
-147.4521484375398
 11
382.5
 21
-147.4521484375398
  0
LINE
  5
72
100
AcDbEntity
  8
First Cut
  6
ByLayer
 62
  256
370
   -1
100
AcDbLine
 10
382.5
 20
-147.4521484375398
 11
382.5
 21
-170.9521484375398
  0
LINE
  5
73
100
AcDbEntity
  8
First Cut
  6
ByLayer
 62
  256
370
   -1
100
AcDbLine
 10
382.5
 20
-170.9521484375398
 11
390
 21
-170.9521484375398
  0
LINE
  5
74
100
AcDbEntity
  8
First Cut
  6
ByLayer
 62
  256
370
   -1
100
AcDbLine
 10
390
 20
-175.9521484375398
 11
382.5
 21
-175.9521484375398
  0
LINE
  5
75
100
AcDbEntity
  8
First Cut
  6
ByLayer
 62
  256
370
   -1
100
AcDbLine
 10
382.5
 20
-175.9521484375398
 11
382.5
 21
-236.4521484375398
  0
LINE
  5
76
100
AcDbEntity
  8
First Cut
  6
ByLayer
 62
  256
370
   -1
100
AcDbLine
 10
382.5
 20
-236.4521484375398
 11
390
 21
-236.4521484375398
  0
LINE
  5
77
100
AcDbEntity
  8
First Cut
  6
ByLayer
 62
  256
370
   -1
100
AcDbLine
 10
375
 20
-142.4521484375398
 11
390
 21
-142.4521484375398
  0
LINE
  5
78
100
AcDbEntity
  8
First Cut
  6
ByLayer
 62
  256
370
   -1
100
AcDbLine
 10
420
 20
-142.4521484375398
 11
420
 21
-147.4521484375398
  0
LINE
  5
79
100
AcDbEntity
  8
First Cut
  6
ByLayer
 62
  256
370
   -1
100
AcDbLine
 10
420
 20
-147.4521484375398
 11
427.5
 21
-147.4521484375398
  0
LINE
  5
7A
100
AcDbEntity
  8
First Cut
  6
ByLayer
 62
  256
370
   -1
100
AcDbLine
 10
427.5
 20
-147.4521484375398
 11
427.5
 21
-170.9521484375398
  0
LINE
  5
7B
100
AcDbEntity
  8
First Cut
  6
ByLayer
 62
  256
370
   -1
100
AcDbLine
 10
427.5
 20
-170.9521484375398
 11
420
 21
-170.9521484375398
  0
LINE
  5
7C
100
AcDbEntity
  8
First Cut
  6
ByLayer
 62
  256
370
   -1
100
AcDbLine
 10
420
 20
-170.9521484375398
 11
420
 21
-175.9521484375398
  0
LINE
  5
7D
100
AcDbEntity
  8
First Cut
  6
ByLayer
 62
  256
370
   -1
100
AcDbLine
 10
420
 20
-175.9521484375398
 11
427.5
 21
-175.9521484375398
  0
LINE
  5
7E
100
AcDbEntity
  8
First Cut
  6
ByLayer
 62
  256
370
   -1
100
AcDbLine
 10
427.5
 20
-175.9521484375398
 11
427.5
 21
-236.4521484375398
  0
LINE
  5
7F
100
AcDbEntity
  8
First Cut
  6
ByLayer
 62
  256
370
   -1
100
AcDbLine
 10
427.5
 20
-236.4521484375398
 11
420
 21
-236.4521484375398
  0
LINE
  5
80
100
AcDbEntity
  8
First Cut
  6
ByLayer
 62
  256
370
   -1
100
AcDbLine
 10
420
 20
-236.4521484375398
 11
420
 21
-241.4521484375398
  0
LINE
  5
81
100
AcDbEntity
  8
First Cut
  6
ByLayer
 62
  256
370
   -1
100
AcDbLine
 10
390
 20
-142.4521484375398
 11
390
 21
-147.4521484375398
  0
LINE
  5
82
100
AcDbEntity
  8
First Cut
  6
ByLayer
 62
  256
370
   -1
100
AcDbLine
 10
390
 20
-147.4521484375398
 11
397.5
 21
-147.4521484375398
  0
LINE
  5
83
100
AcDbEntity
  8
First Cut
  6
ByLayer
 62
  256
370
   -1
100
AcDbLine
 10
397.5
 20
-147.4521484375398
 11
397.5
 21
-170.9521484375398
  0
LINE
  5
84
100
AcDbEntity
  8
First Cut
  6
ByLayer
 62
  256
370
   -1
100
AcDbLine
 10
397.5
 20
-170.9521484375398
 11
390
 21
-170.9521484375398
  0
LINE
  5
85
100
AcDbEntity
  8
First Cut
  6
ByLayer
 62
  256
370
   -1
100
AcDbLine
 10
390
 20
-170.9521484375398
 11
390
 21
-175.9521484375398
  0
LINE
  5
86
100
AcDbEntity
  8
First Cut
  6
ByLayer
 62
  256
370
   -1
100
AcDbLine
 10
390
 20
-175.9521484375398
 11
397.5
 21
-175.9521484375398
  0
LINE
  5
87
100
AcDbEntity
  8
First Cut
  6
ByLayer
 62
  256
370
   -1
100
AcDbLine
 10
397.5
 20
-175.9521484375398
 11
397.5
 21
-236.4521484375398
  0
LINE
  5
88
100
AcDbEntity
  8
First Cut
  6
ByLayer
 62
  256
370
   -1
100
AcDbLine
 10
397.5
 20
-236.4521484375398
 11
390
 21
-236.4521484375398
  0
LINE
  5
89
100
AcDbEntity
  8
First Cut
  6
ByLayer
 62
  256
370
   -1
100
AcDbLine
 10
390
 20
-236.4521484375398
 11
390
 21
-241.4521484375398
  0
LINE
  5
8A
100
AcDbEntity
  8
First Cut
  6
ByLayer
 62
  256
370
   -1
100
AcDbLine
 10
405
 20
-241.4521484375398
 11
405
 21
-142.4521484375398
  0
LINE
  5
8B
100
AcDbEntity
  8
First Cut
  6
ByLayer
 62
  256
370
   -1
100
AcDbLine
 10
405
 20
-142.4521484375398
 11
390
 21
-142.4521484375398
  0
LINE
  5
8C
100
AcDbEntity
  8
First Cut
  6
ByLayer
 62
  256
370
   -1
100
AcDbLine
 10
435
 20
-142.4521484375398
 11
420
 21
-142.4521484375398
  0
LINE
  5
8D
100
AcDbEntity
  8
First Cut
  6
ByLayer
 62
  256
370
   -1
100
AcDbLine
 10
480
 20
-137.4521484375398
 11
480
 21
-133.9521484375398
  0
LINE
  5
8E
100
AcDbEntity
  8
First Cut
  6
ByLayer
 62
  256
370
   -1
100
AcDbLine
 10
495
 20
-133.9521484375398
 11
495
 21
-137.4521484375398
  0
LINE
  5
8F
100
AcDbEntity
  8
First Cut
  6
ByLayer
 62
  256
370
   -1
100
AcDbLine
 10
505
 20
-137.4521484375398
 11
505
 21
-133.9521484375398
  0
LINE
  5
90
100
AcDbEntity
  8
First Cut
  6
ByLayer
 62
  256
370
   -1
100
AcDbLine
 10
480
 20
-133.9521484375398
 11
495
 21
-133.9521484375398
  0
LINE
  5
91
100
AcDbEntity
  8
First Cut
  6
ByLayer
 62
  256
370
   -1
100
AcDbLine
 10
505
 20
-133.9521484375398
 11
520
 21
-133.9521484375398
  0
LINE
  5
92
100
AcDbEntity
  8
First Cut
  6
ByLayer
 62
  256
370
   -1
100
AcDbLine
 10
520
 20
-133.9521484375398
 11
520
 21
-137.4521484375398
  0
LINE
  5
93
100
AcDbEntity
  8
First Cut
  6
ByLayer
 62
  256
370
   -1
100
AcDbLine
 10
530
 20
-137.4521484375398
 11
530
 21
-133.9521484375398
  0
LINE
  5
94
100
AcDbEntity
  8
First Cut
  6
ByLayer
 62
  256
370
   -1
100
AcDbLine
 10
530
 20
-133.9521484375398
 11
545
 21
-133.9521484375398
  0
LINE
  5
95
100
AcDbEntity
  8
First Cut
  6
ByLayer
 62
  256
370
   -1
100
AcDbLine
 10
545
 20
-133.9521484375398
 11
545
 21
-137.4521484375398
  0
LINE
  5
96
100
AcDbEntity
  8
First Cut
  6
ByLayer
 62
  256
370
   -1
100
AcDbLine
 10
490
 20
-133.9521484375398
 11
490
 21
-137.4521484375398
  0
LINE
  5
97
100
AcDbEntity
  8
First Cut
  6
ByLayer
 62
  256
370
   -1
100
AcDbLine
 10
490
 20
-137.4521484375398
 11
505
 21
-137.4521484375398
  0
LINE
  5
98
100
AcDbEntity
  8
First Cut
  6
ByLayer
 62
  256
370
   -1
100
AcDbLine
 10
515
 20
-133.9521484375398
 11
515
 21
-137.4521484375398
  0
LINE
  5
99
100
AcDbEntity
  8
First Cut
  6
ByLayer
 62
  256
370
   -1
100
AcDbLine
 10
515
 20
-137.4521484375398
 11
530
 21
-137.4521484375398
  0
LINE
  5
9A
100
AcDbEntity
  8
First Cut
  6
ByLayer
 62
  256
370
   -1
100
AcDbLine
 10
540
 20
-133.9521484375398
 11
540
 21
-137.4521484375398
  0
LINE
  5
9B
100
AcDbEntity
  8
First Cut
  6
ByLayer
 62
  256
370
   -1
100
AcDbLine
 10
540
 20
-137.4521484375398
 11
553.5
 21
-137.4521484375398
  0
LINE
  5
9C
100
AcDbEntity
  8
First Cut
  6
ByLayer
 62
  256
370
   -1
100
AcDbLine
 10
470
 20
-137.4521484375398
 11
480
 21
-137.4521484375398
  0
LWPOLYLINE
  5
9D
100
AcDbEntity
  8
First Cut
  6
ByLayer
 62
  256
370
   -1
100
AcDbPolyline
 90
    5
 70
    1
 43
0
 10
435.75
 20
-110.4521484375398
 10
445.75
 20
-110.4521484375398
 10
445.75
 20
-109.4521484375398
 10
435.75
 20
-109.4521484375398
 10
435.75
 20
-109.4521484375398
  0
LWPOLYLINE
  5
9E
100
AcDbEntity
  8
First Cut
  6
ByLayer
 62
  256
370
   -1
100
AcDbPolyline
 90
    5
 70
    1
 43
0
 10
435.75
 20
-122.7021484375398
 10
445.75
 20
-122.7021484375398
 10
445.75
 20
-121.7021484375398
 10
435.75
 20
-121.7021484375398
 10
435.75
 20
-121.7021484375398
  0
CIRCLE
  5
9F
100
AcDbEntity
  8
First Cut
  6
ByLayer
 62
  256
370
   -1
100
AcDbCircle
 10
452
 20
-94.95214843753982
 40
2
  0
CIRCLE
  5
A0
100
AcDbEntity
  8
First Cut
  6
ByLayer
 62
  256
370
   -1
100
AcDbCircle
 10
452
 20
-68.95214843753982
 40
2
  0
LWPOLYLINE
  5
A1
100
AcDbEntity
  8
First Cut
  6
ByLayer
 62
  256
370
   -1
100
AcDbPolyline
 90
    4
 70
    1
 43
0
 10
433.5
 20
-95.45214843753982
 10
433.5
 20
-85.45214843753982
 10
437
 20
-85.45214843753982
 10
437
 20
-95.45214843753982
  0
LWPOLYLINE
  5
A2
100
AcDbEntity
  8
First Cut
  6
ByLayer
 62
  256
370
   -1
100
AcDbPolyline
 90
    4
 70
    1
 43
0
 10
433.5
 20
-70.45214843753982
 10
433.5
 20
-60.45214843753982
 10
437
 20
-60.45214843753982
 10
437
 20
-70.45214843753982
  0
LWPOLYLINE
  5
A3
100
AcDbEntity
  8
First Cut
  6
ByLayer
 62
  256
370
   -1
100
AcDbPolyline
 90
    4
 70
    1
 43
0
 10
433.5
 20
-120.4521484375398
 10
433.5
 20
-110.4521484375398
 10
437
 20
-110.4521484375398
 10
437
 20
-120.4521484375398
  0
LWPOLYLINE
  5
A4
100
AcDbEntity
  8
First Cut
  6
ByLayer
 62
  256
370
   -1
100
AcDbPolyline
 90
    4
 70
    1
 43
0
 10
470.0000000000001
 20
-88.70214843753982
 10
480.0000000000001
 20
-88.70214843753982
 10
480.0000000000001
 20
-92.20214843753982
 10
470.0000000000001
 20
-92.20214843753982
  0
LWPOLYLINE
  5
A5
100
AcDbEntity
  8
First Cut
  6
ByLayer
 62
  256
370
   -1
100
AcDbPolyline
 90
    4
 70
    1
 43
0
 10
495.0000000000001
 20
-88.70214843753982
 10
505.0000000000001
 20
-88.70214843753982
 10
505.0000000000001
 20
-92.20214843753982
 10
495.0000000000001
 20
-92.20214843753982
  0
LWPOLYLINE
  5
A6
100
AcDbEntity
  8
First Cut
  6
ByLayer
 62
  256
370
   -1
100
AcDbPolyline
 90
    4
 70
    1
 43
0
 10
520.0000000000001
 20
-88.70214843753982
 10
530.0000000000001
 20
-88.70214843753982
 10
530.0000000000001
 20
-92.20214843753982
 10
520.0000000000001
 20
-92.20214843753982
  0
LWPOLYLINE
  5
A7
100
AcDbEntity
  8
First Cut
  6
ByLayer
 62
  256
370
   -1
100
AcDbPolyline
 90
    4
 70
    1
 43
0
 10
545.0000000000001
 20
-88.70214843753982
 10
555.0000000000001
 20
-88.70214843753982
 10
555.0000000000001
 20
-92.20214843753982
 10
545.0000000000001
 20
-92.20214843753982
  0
LWPOLYLINE
  5
A8
100
AcDbEntity
  8
First Cut
  6
ByLayer
 62
  256
370
   -1
100
AcDbPolyline
 90
    4
 70
    1
 43
0
 10
570.0000000000001
 20
-88.70214843753982
 10
580.0000000000001
 20
-88.70214843753982
 10
580.0000000000001
 20
-92.20214843753982
 10
570.0000000000001
 20
-92.20214843753982
  0
LWPOLYLINE
  5
A9
100
AcDbEntity
  8
First Cut
  6
ByLayer
 62
  256
370
   -1
100
AcDbPolyline
 90
    4
 70
    1
 43
0
 10
595.0000000000001
 20
-88.70214843753982
 10
605.0000000000001
 20
-88.70214843753982
 10
605.0000000000001
 20
-92.20214843753982
 10
595.0000000000001
 20
-92.20214843753982
  0
LWPOLYLINE
  5
AA
100
AcDbEntity
  8
First Cut
  6
ByLayer
 62
  256
370
   -1
100
AcDbPolyline
 90
    4
 70
    1
 43
0
 10
445
 20
-88.70214843753982
 10
455
 20
-88.70214843753982
 10
455
 20
-92.20214843753982
 10
445
 20
-92.20214843753982
  0
LWPOLYLINE
  5
AB
100
AcDbEntity
  8
First Cut
  6
ByLayer
 62
  256
370
   -1
100
AcDbPolyline
 90
    4
 70
    1
 43
0
 10
620.0000000000001
 20
-88.70214843753982
 10
630.0000000000001
 20
-88.70214843753982
 10
630.0000000000001
 20
-92.20214843753982
 10
620.0000000000001
 20
-92.20214843753982
  0
LWPOLYLINE
  5
AC
100
AcDbEntity
  8
First Cut
  6
ByLayer
 62
  256
370
   -1
100
AcDbPolyline
 90
    4
 70
    1
 43
0
 10
200
 20
-133.9521484375398
 10
210
 20
-133.9521484375398
 10
210
 20
-137.4521484375398
 10
200
 20
-137.4521484375398
  0
LWPOLYLINE
  5
AD
100
AcDbEntity
  8
First Cut
  6
ByLayer
 62
  256
370
   -1
100
AcDbPolyline
 90
    4
 70
    1
 43
0
 10
225
 20
-133.9521484375398
 10
235
 20
-133.9521484375398
 10
235
 20
-137.4521484375398
 10
225
 20
-137.4521484375398
  0
LWPOLYLINE
  5
AE
100
AcDbEntity
  8
First Cut
  6
ByLayer
 62
  256
370
   -1
100
AcDbPolyline
 90
    4
 70
    1
 43
0
 10
250
 20
-133.9521484375398
 10
260
 20
-133.9521484375398
 10
260
 20
-137.4521484375398
 10
250
 20
-137.4521484375398
  0
LWPOLYLINE
  5
AF
100
AcDbEntity
  8
First Cut
  6
ByLayer
 62
  256
370
   -1
100
AcDbPolyline
 90
    4
 70
    1
 43
0
 10
275
 20
-133.9521484375398
 10
285
 20
-133.9521484375398
 10
285
 20
-137.4521484375398
 10
275
 20
-137.4521484375398
  0
LWPOLYLINE
  5
B0
100
AcDbEntity
  8
First Cut
  6
ByLayer
 62
  256
370
   -1
100
AcDbPolyline
 90
    4
 70
    1
 43
0
 10
300
 20
-133.9521484375398
 10
310
 20
-133.9521484375398
 10
310
 20
-137.4521484375398
 10
300
 20
-137.4521484375398
  0
LWPOLYLINE
  5
B1
100
AcDbEntity
  8
First Cut
  6
ByLayer
 62
  256
370
   -1
100
AcDbPolyline
 90
    4
 70
    1
 43
0
 10
325
 20
-133.9521484375398
 10
335
 20
-133.9521484375398
 10
335
 20
-137.4521484375398
 10
325
 20
-137.4521484375398
  0
LWPOLYLINE
  5
B2
100
AcDbEntity
  8
First Cut
  6
ByLayer
 62
  256
370
   -1
100
AcDbPolyline
 90
    4
 70
    1
 43
0
 10
167.5
 20
-133.9521484375398
 10
185
 20
-133.9521484375398
 10
185
 20
-137.4521484375398
 10
167.5
 20
-137.4521484375398
  0
LWPOLYLINE
  5
B3
100
AcDbEntity
  8
First Cut
  6
ByLayer
 62
  256
370
   -1
100
AcDbPolyline
 90
    4
 70
    1
 43
0
 10
367.5
 20
-137.4521484375398
 10
350
 20
-137.4521484375398
 10
350
 20
-133.9521484375398
 10
367.5
 20
-133.9521484375398
  0
LWPOLYLINE
  5
B4
100
AcDbEntity
  8
First Cut
  6
ByLayer
 62
  256
370
   -1
100
AcDbPolyline
 90
    4
 70
    1
 43
0
 10
200
 20
-43.45214843753982
 10
210
 20
-43.45214843753982
 10
210
 20
-46.95214843753982
 10
200
 20
-46.95214843753982
  0
LWPOLYLINE
  5
B5
100
AcDbEntity
  8
First Cut
  6
ByLayer
 62
  256
370
   -1
100
AcDbPolyline
 90
    4
 70
    1
 43
0
 10
225
 20
-43.45214843753982
 10
235
 20
-43.45214843753982
 10
235
 20
-46.95214843753982
 10
225
 20
-46.95214843753982
  0
LWPOLYLINE
  5
B6
100
AcDbEntity
  8
First Cut
  6
ByLayer
 62
  256
370
   -1
100
AcDbPolyline
 90
    4
 70
    1
 43
0
 10
250
 20
-43.45214843753982
 10
260
 20
-43.45214843753982
 10
260
 20
-46.95214843753982
 10
250
 20
-46.95214843753982
  0
LWPOLYLINE
  5
B7
100
AcDbEntity
  8
First Cut
  6
ByLayer
 62
  256
370
   -1
100
AcDbPolyline
 90
    4
 70
    1
 43
0
 10
275
 20
-43.45214843753982
 10
285
 20
-43.45214843753982
 10
285
 20
-46.95214843753982
 10
275
 20
-46.95214843753982
  0
LWPOLYLINE
  5
B8
100
AcDbEntity
  8
First Cut
  6
ByLayer
 62
  256
370
   -1
100
AcDbPolyline
 90
    4
 70
    1
 43
0
 10
300
 20
-43.45214843753982
 10
310
 20
-43.45214843753982
 10
310
 20
-46.95214843753982
 10
300
 20
-46.95214843753982
  0
LWPOLYLINE
  5
B9
100
AcDbEntity
  8
First Cut
  6
ByLayer
 62
  256
370
   -1
100
AcDbPolyline
 90
    4
 70
    1
 43
0
 10
325
 20
-43.45214843753982
 10
335
 20
-43.45214843753982
 10
335
 20
-46.95214843753982
 10
325
 20
-46.95214843753982
  0
LWPOLYLINE
  5
BA
100
AcDbEntity
  8
First Cut
  6
ByLayer
 62
  256
370
   -1
100
AcDbPolyline
 90
    4
 70
    1
 43
0
 10
167.5
 20
-43.45214843753982
 10
185
 20
-43.45214843753982
 10
185
 20
-46.95214843753982
 10
167.5
 20
-46.95214843753982
  0
LWPOLYLINE
  5
BB
100
AcDbEntity
  8
First Cut
  6
ByLayer
 62
  256
370
   -1
100
AcDbPolyline
 90
    4
 70
    1
 43
0
 10
367.5
 20
-46.95214843753982
 10
350
 20
-46.95214843753982
 10
350
 20
-43.45214843753982
 10
367.5
 20
-43.45214843753982
  0
LINE
  5
BC
100
AcDbEntity
  8
First Cut
  6
ByLayer
 62
  256
370
   -1
100
AcDbLine
 10
430
 20
-38.45214843753982
 11
430
 21
-142.4521484375398
  0
LINE
  5
BD
100
AcDbEntity
  8
First Cut
  6
ByLayer
 62
  256
370
   -1
100
AcDbLine
 10
375
 20
-142.4521484375398
 11
160
 21
-142.4521484375398
  0
CIRCLE
  5
BE
100
AcDbEntity
  8
First Cut
  6
ByLayer
 62
  256
370
   -1
100
AcDbCircle
 10
182
 20
-107.9521484375398
 40
2
  0
CIRCLE
  5
BF
100
AcDbEntity
  8
First Cut
  6
ByLayer
 62
  256
370
   -1
100
AcDbCircle
 10
182
 20
-81.95214843753982
 40
2
  0
LWPOLYLINE
  5
C0
100
AcDbEntity
  8
First Cut
  6
ByLayer
 62
  256
370
   -1
100
AcDbPolyline
 90
    4
 70
    1
 43
0
 10
200.0000000000001
 20
-237.9521484375398
 10
210.0000000000001
 20
-237.9521484375398
 10
210.0000000000001
 20
-241.4521484375398
 10
200.0000000000001
 20
-241.4521484375398
  0
LWPOLYLINE
  5
C1
100
AcDbEntity
  8
First Cut
  6
ByLayer
 62
  256
370
   -1
100
AcDbPolyline
 90
    4
 70
    1
 43
0
 10
225.0000000000001
 20
-237.9521484375398
 10
235.0000000000001
 20
-237.9521484375398
 10
235.0000000000001
 20
-241.4521484375398
 10
225.0000000000001
 20
-241.4521484375398
  0
LWPOLYLINE
  5
C2
100
AcDbEntity
  8
First Cut
  6
ByLayer
 62
  256
370
   -1
100
AcDbPolyline
 90
    4
 70
    1
 43
0
 10
250.0000000000001
 20
-237.9521484375398
 10
260.0000000000001
 20
-237.9521484375398
 10
260.0000000000001
 20
-241.4521484375398
 10
250.0000000000001
 20
-241.4521484375398
  0
LWPOLYLINE
  5
C3
100
AcDbEntity
  8
First Cut
  6
ByLayer
 62
  256
370
   -1
100
AcDbPolyline
 90
    4
 70
    1
 43
0
 10
275.0000000000001
 20
-237.9521484375398
 10
285.0000000000002
 20
-237.9521484375398
 10
285.0000000000002
 20
-241.4521484375398
 10
275.0000000000001
 20
-241.4521484375398
  0
LWPOLYLINE
  5
C4
100
AcDbEntity
  8
First Cut
  6
ByLayer
 62
  256
370
   -1
100
AcDbPolyline
 90
    4
 70
    1
 43
0
 10
300.0000000000002
 20
-237.9521484375398
 10
310.0000000000002
 20
-237.9521484375398
 10
310.0000000000002
 20
-241.4521484375398
 10
300.0000000000002
 20
-241.4521484375398
  0
LWPOLYLINE
  5
C5
100
AcDbEntity
  8
First Cut
  6
ByLayer
 62
  256
370
   -1
100
AcDbPolyline
 90
    4
 70
    1
 43
0
 10
325.0000000000002
 20
-237.9521484375398
 10
335.0000000000002
 20
-237.9521484375398
 10
335.0000000000002
 20
-241.4521484375398
 10
325.0000000000002
 20
-241.4521484375398
  0
LWPOLYLINE
  5
C6
100
AcDbEntity
  8
First Cut
  6
ByLayer
 62
  256
370
   -1
100
AcDbPolyline
 90
    4
 70
    1
 43
0
 10
167.5
 20
-237.9521484375398
 10
185
 20
-237.9521484375398
 10
185
 20
-241.4521484375398
 10
167.5
 20
-241.4521484375398
  0
LWPOLYLINE
  5
C7
100
AcDbEntity
  8
First Cut
  6
ByLayer
 62
  256
370
   -1
100
AcDbPolyline
 90
    4
 70
    1
 43
0
 10
367.5000000000002
 20
-241.4521484375398
 10
350.0000000000002
 20
-241.4521484375398
 10
350.0000000000002
 20
-237.9521484375398
 10
367.5000000000002
 20
-237.9521484375398
  0
LWPOLYLINE
  5
C8
100
AcDbEntity
  8
First Cut
  6
ByLayer
 62
  256
370
   -1
100
AcDbPolyline
 90
    4
 70
    1
 43
0
 10
200.0000000000001
 20
-147.4521484375398
 10
210.0000000000001
 20
-147.4521484375398
 10
210.0000000000001
 20
-150.9521484375398
 10
200.0000000000001
 20
-150.9521484375398
  0
LWPOLYLINE
  5
C9
100
AcDbEntity
  8
First Cut
  6
ByLayer
 62
  256
370
   -1
100
AcDbPolyline
 90
    4
 70
    1
 43
0
 10
225.0000000000001
 20
-147.4521484375398
 10
235.0000000000001
 20
-147.4521484375398
 10
235.0000000000001
 20
-150.9521484375398
 10
225.0000000000001
 20
-150.9521484375398
  0
LWPOLYLINE
  5
CA
100
AcDbEntity
  8
First Cut
  6
ByLayer
 62
  256
370
   -1
100
AcDbPolyline
 90
    4
 70
    1
 43
0
 10
250.0000000000001
 20
-147.4521484375398
 10
260.0000000000001
 20
-147.4521484375398
 10
260.0000000000001
 20
-150.9521484375398
 10
250.0000000000001
 20
-150.9521484375398
  0
LWPOLYLINE
  5
CB
100
AcDbEntity
  8
First Cut
  6
ByLayer
 62
  256
370
   -1
100
AcDbPolyline
 90
    4
 70
    1
 43
0
 10
275.0000000000001
 20
-147.4521484375398
 10
285.0000000000002
 20
-147.4521484375398
 10
285.0000000000002
 20
-150.9521484375398
 10
275.0000000000001
 20
-150.9521484375398
  0
LWPOLYLINE
  5
CC
100
AcDbEntity
  8
First Cut
  6
ByLayer
 62
  256
370
   -1
100
AcDbPolyline
 90
    4
 70
    1
 43
0
 10
300.0000000000002
 20
-147.4521484375398
 10
310.0000000000002
 20
-147.4521484375398
 10
310.0000000000002
 20
-150.9521484375398
 10
300.0000000000002
 20
-150.9521484375398
  0
LWPOLYLINE
  5
CD
100
AcDbEntity
  8
First Cut
  6
ByLayer
 62
  256
370
   -1
100
AcDbPolyline
 90
    4
 70
    1
 43
0
 10
325.0000000000002
 20
-147.4521484375398
 10
335.0000000000002
 20
-147.4521484375398
 10
335.0000000000002
 20
-150.9521484375398
 10
325.0000000000002
 20
-150.9521484375398
  0
LWPOLYLINE
  5
CE
100
AcDbEntity
  8
First Cut
  6
ByLayer
 62
  256
370
   -1
100
AcDbPolyline
 90
    4
 70
    1
 43
0
 10
167.5
 20
-147.4521484375398
 10
185
 20
-147.4521484375398
 10
185
 20
-150.9521484375398
 10
167.5
 20
-150.9521484375398
  0
LWPOLYLINE
  5
CF
100
AcDbEntity
  8
First Cut
  6
ByLayer
 62
  256
370
   -1
100
AcDbPolyline
 90
    4
 70
    1
 43
0
 10
367.5000000000002
 20
-150.9521484375398
 10
350.0000000000002
 20
-150.9521484375398
 10
350.0000000000002
 20
-147.4521484375398
 10
367.5000000000002
 20
-147.4521484375398
  0
LWPOLYLINE
  5
D0
100
AcDbEntity
  8
First Cut
  6
ByLayer
 62
  256
370
   -1
100
AcDbPolyline
 90
    4
 70
    1
 43
0
 10
200.0000000000001
 20
-192.7021484375398
 10
210.0000000000001
 20
-192.7021484375398
 10
210.0000000000001
 20
-196.2021484375398
 10
200.0000000000001
 20
-196.2021484375398
  0
LWPOLYLINE
  5
D1
100
AcDbEntity
  8
First Cut
  6
ByLayer
 62
  256
370
   -1
100
AcDbPolyline
 90
    4
 70
    1
 43
0
 10
225.0000000000001
 20
-192.7021484375398
 10
235.0000000000001
 20
-192.7021484375398
 10
235.0000000000001
 20
-196.2021484375398
 10
225.0000000000001
 20
-196.2021484375398
  0
LWPOLYLINE
  5
D2
100
AcDbEntity
  8
First Cut
  6
ByLayer
 62
  256
370
   -1
100
AcDbPolyline
 90
    4
 70
    1
 43
0
 10
250.0000000000001
 20
-192.7021484375398
 10
260.0000000000001
 20
-192.7021484375398
 10
260.0000000000001
 20
-196.2021484375398
 10
250.0000000000001
 20
-196.2021484375398
  0
LWPOLYLINE
  5
D3
100
AcDbEntity
  8
First Cut
  6
ByLayer
 62
  256
370
   -1
100
AcDbPolyline
 90
    4
 70
    1
 43
0
 10
275.0000000000001
 20
-192.7021484375398
 10
285.0000000000002
 20
-192.7021484375398
 10
285.0000000000002
 20
-196.2021484375398
 10
275.0000000000001
 20
-196.2021484375398
  0
LWPOLYLINE
  5
D4
100
AcDbEntity
  8
First Cut
  6
ByLayer
 62
  256
370
   -1
100
AcDbPolyline
 90
    4
 70
    1
 43
0
 10
300.0000000000002
 20
-192.7021484375398
 10
310.0000000000002
 20
-192.7021484375398
 10
310.0000000000002
 20
-196.2021484375398
 10
300.0000000000002
 20
-196.2021484375398
  0
LWPOLYLINE
  5
D5
100
AcDbEntity
  8
First Cut
  6
ByLayer
 62
  256
370
   -1
100
AcDbPolyline
 90
    4
 70
    1
 43
0
 10
325.0000000000002
 20
-192.7021484375398
 10
335.0000000000002
 20
-192.7021484375398
 10
335.0000000000002
 20
-196.2021484375398
 10
325.0000000000002
 20
-196.2021484375398
  0
LWPOLYLINE
  5
D6
100
AcDbEntity
  8
First Cut
  6
ByLayer
 62
  256
370
   -1
100
AcDbPolyline
 90
    4
 70
    1
 43
0
 10
175
 20
-192.7021484375398
 10
185
 20
-192.7021484375398
 10
185
 20
-196.2021484375398
 10
175
 20
-196.2021484375398
  0
LWPOLYLINE
  5
D7
100
AcDbEntity
  8
First Cut
  6
ByLayer
 62
  256
370
   -1
100
AcDbPolyline
 90
    4
 70
    1
 43
0
 10
350.0000000000002
 20
-192.7021484375398
 10
360.0000000000002
 20
-192.7021484375398
 10
360.0000000000002
 20
-196.2021484375398
 10
350.0000000000002
 20
-196.2021484375398
  0
LWPOLYLINE
  5
D8
100
AcDbEntity
  8
First Cut
  6
ByLayer
 62
  256
370
   -1
100
AcDbPolyline
 90
    4
 70
    1
 43
0
 10
163.5
 20
-199.4521484375398
 10
163.5
 20
-189.4521484375398
 10
167
 20
-189.4521484375398
 10
167
 20
-199.4521484375398
  0
LWPOLYLINE
  5
D9
100
AcDbEntity
  8
First Cut
  6
ByLayer
 62
  256
370
   -1
100
AcDbPolyline
 90
    4
 70
    1
 43
0
 10
163.5
 20
-174.4521484375398
 10
163.5
 20
-164.4521484375398
 10
167
 20
-164.4521484375398
 10
167
 20
-174.4521484375398
  0
LWPOLYLINE
  5
DA
100
AcDbEntity
  8
First Cut
  6
ByLayer
 62
  256
370
   -1
100
AcDbPolyline
 90
    4
 70
    1
 43
0
 10
163.5
 20
-224.4521484375398
 10
163.5
 20
-214.4521484375398
 10
167
 20
-214.4521484375398
 10
167
 20
-224.4521484375398
  0
CIRCLE
  5
DB
100
AcDbEntity
  8
First Cut
  6
ByLayer
 62
  256
370
   -1
100
AcDbCircle
 10
208.6000000000001
 20
-165.4521484375398
 40
5
  0
CIRCLE
  5
DC
100
AcDbEntity
  8
First Cut
  6
ByLayer
 62
  256
370
   -1
100
AcDbCircle
 10
250.2000000000001
 20
-165.4521484375398
 40
5
  0
CIRCLE
  5
DD
100
AcDbEntity
  8
First Cut
  6
ByLayer
 62
  256
370
   -1
100
AcDbCircle
 10
291.8000000000006
 20
-165.4521484375398
 40
5
  0
CIRCLE
  5
DE
100
AcDbEntity
  8
First Cut
  6
ByLayer
 62
  256
370
   -1
100
AcDbCircle
 10
333.4000000000005
 20
-165.4521484375398
 40
5
  0
CIRCLE
  5
DF
100
AcDbEntity
  8
First Cut
  6
ByLayer
 62
  256
370
   -1
100
AcDbCircle
 10
333.4000000000005
 20
-223.4521484375398
 40
5
  0
CIRCLE
  5
E0
100
AcDbEntity
  8
First Cut
  6
ByLayer
 62
  256
370
   -1
100
AcDbCircle
 10
291.8000000000006
 20
-223.4521484375399
 40
5
  0
CIRCLE
  5
E1
100
AcDbEntity
  8
First Cut
  6
ByLayer
 62
  256
370
   -1
100
AcDbCircle
 10
250.2000000000001
 20
-223.4521484375397
 40
5
  0
CIRCLE
  5
E2
100
AcDbEntity
  8
First Cut
  6
ByLayer
 62
  256
370
   -1
100
AcDbCircle
 10
208.6000000000001
 20
-223.4521484375398
 40
5
  0
LINE
  5
E3
100
AcDbEntity
  8
First Cut
  6
ByLayer
 62
  256
370
   -1
100
AcDbLine
 10
375.0000000000002
 20
-142.4521484375398
 11
375.0000000000001
 21
-241.4521484375398
  0
LINE
  5
E4
100
AcDbEntity
  8
First Cut
  6
ByLayer
 62
  256
370
   -1
100
AcDbLine
 10
260.0000000000001
 20
-38.45214843753981
 11
270.0000000000001
 21
-38.45214843753981
  0
LINE
  5
E5
100
AcDbEntity
  8
First Cut
  6
ByLayer
 62
  256
370
   -1
100
AcDbLine
 10
170
 20
-36.95214843753981
 11
185.0000000000001
 21
-36.95214843753981
  0
LINE
  5
E6
100
AcDbEntity
  8
First Cut
  6
ByLayer
 62
  256
370
   -1
100
AcDbLine
 10
195.0000000000001
 20
-36.95214843753981
 11
210.0000000000001
 21
-36.95214843753981
  0
LINE
  5
E7
100
AcDbEntity
  8
First Cut
  6
ByLayer
 62
  256
370
   -1
100
AcDbLine
 10
220.0000000000001
 20
-36.95214843753981
 11
235.0000000000001
 21
-36.95214843753981
  0
LINE
  5
E8
100
AcDbEntity
  8
First Cut
  6
ByLayer
 62
  256
370
   -1
100
AcDbLine
 10
245.0000000000001
 20
-36.95214843753981
 11
260.0000000000001
 21
-36.95214843753981
  0
LINE
  5
E9
100
AcDbEntity
  8
First Cut
  6
ByLayer
 62
  256
370
   -1
100
AcDbLine
 10
270.0000000000001
 20
-36.95214843753981
 11
285.0000000000001
 21
-36.95214843753981
  0
LINE
  5
EA
100
AcDbEntity
  8
First Cut
  6
ByLayer
 62
  256
370
   -1
100
AcDbLine
 10
295.0000000000001
 20
-36.95214843753981
 11
310.0000000000001
 21
-36.95214843753981
  0
LINE
  5
EB
100
AcDbEntity
  8
First Cut
  6
ByLayer
 62
  256
370
   -1
100
AcDbLine
 10
320.0000000000001
 20
-36.95214843753981
 11
335.0000000000001
 21
-36.95214843753981
  0
LINE
  5
EC
100
AcDbEntity
  8
First Cut
  6
ByLayer
 62
  256
370
   -1
100
AcDbLine
 10
170
 20
-38.45214843753981
 11
170
 21
-36.95214843753981
  0
LINE
  5
ED
100
AcDbEntity
  8
First Cut
  6
ByLayer
 62
  256
370
   -1
100
AcDbLine
 10
185.0000000000001
 20
-36.95214843753981
 11
185.0000000000001
 21
-38.45214843753981
  0
LINE
  5
EE
100
AcDbEntity
  8
First Cut
  6
ByLayer
 62
  256
370
   -1
100
AcDbLine
 10
195.0000000000001
 20
-38.45214843753981
 11
195.0000000000001
 21
-36.95214843753981
  0
LINE
  5
EF
100
AcDbEntity
  8
First Cut
  6
ByLayer
 62
  256
370
   -1
100
AcDbLine
 10
210.0000000000001
 20
-36.95214843753981
 11
210.0000000000001
 21
-38.45214843753981
  0
LINE
  5
F0
100
AcDbEntity
  8
First Cut
  6
ByLayer
 62
  256
370
   -1
100
AcDbLine
 10
220.0000000000001
 20
-38.45214843753981
 11
220.0000000000001
 21
-36.95214843753981
  0
LINE
  5
F1
100
AcDbEntity
  8
First Cut
  6
ByLayer
 62
  256
370
   -1
100
AcDbLine
 10
235.0000000000001
 20
-36.95214843753981
 11
235.0000000000001
 21
-38.45214843753981
  0
LINE
  5
F2
100
AcDbEntity
  8
First Cut
  6
ByLayer
 62
  256
370
   -1
100
AcDbLine
 10
245.0000000000001
 20
-38.45214843753981
 11
245.0000000000001
 21
-36.95214843753981
  0
LINE
  5
F3
100
AcDbEntity
  8
First Cut
  6
ByLayer
 62
  256
370
   -1
100
AcDbLine
 10
260.0000000000001
 20
-36.95214843753981
 11
260.0000000000001
 21
-38.45214843753981
  0
LINE
  5
F4
100
AcDbEntity
  8
First Cut
  6
ByLayer
 62
  256
370
   -1
100
AcDbLine
 10
270.0000000000001
 20
-38.45214843753981
 11
270.0000000000001
 21
-36.95214843753981
  0
LINE
  5
F5
100
AcDbEntity
  8
First Cut
  6
ByLayer
 62
  256
370
   -1
100
AcDbLine
 10
285.0000000000001
 20
-36.95214843753981
 11
285.0000000000001
 21
-38.45214843753981
  0
LINE
  5
F6
100
AcDbEntity
  8
First Cut
  6
ByLayer
 62
  256
370
   -1
100
AcDbLine
 10
295.0000000000001
 20
-38.45214843753981
 11
295.0000000000001
 21
-36.95214843753981
  0
LINE
  5
F7
100
AcDbEntity
  8
First Cut
  6
ByLayer
 62
  256
370
   -1
100
AcDbLine
 10
310.0000000000001
 20
-36.95214843753981
 11
310.0000000000001
 21
-38.45214843753981
  0
LINE
  5
F8
100
AcDbEntity
  8
First Cut
  6
ByLayer
 62
  256
370
   -1
100
AcDbLine
 10
320.0000000000001
 20
-38.45214843753981
 11
320.0000000000001
 21
-36.95214843753981
  0
LINE
  5
F9
100
AcDbEntity
  8
First Cut
  6
ByLayer
 62
  256
370
   -1
100
AcDbLine
 10
335.0000000000001
 20
-36.95214843753981
 11
335.0000000000001
 21
-38.45214843753981
  0
LWPOLYLINE
  5
FA
100
AcDbEntity
  8
First Cut
  6
ByLayer
 62
  256
370
   -1
100
AcDbPolyline
 90
    4
 70
    1
 43
0
 10
185.0000000000001
 20
20.04785156246019
 10
195.0000000000001
 20
20.04785156246019
 10
195.0000000000001
 20
16.54785156246019
 10
185.0000000000001
 20
16.54785156246019
  0
LWPOLYLINE
  5
FB
100
AcDbEntity
  8
First Cut
  6
ByLayer
 62
  256
370
   -1
100
AcDbPolyline
 90
    4
 70
    1
 43
0
 10
210.0000000000001
 20
20.04785156246019
 10
220.0000000000001
 20
20.04785156246019
 10
220.0000000000001
 20
16.54785156246019
 10
210.0000000000001
 20
16.54785156246019
  0
LWPOLYLINE
  5
FC
100
AcDbEntity
  8
First Cut
  6
ByLayer
 62
  256
370
   -1
100
AcDbPolyline
 90
    4
 70
    1
 43
0
 10
235.0000000000001
 20
20.04785156246019
 10
245.0000000000001
 20
20.04785156246019
 10
245.0000000000001
 20
16.54785156246019
 10
235.0000000000001
 20
16.54785156246019
  0
LWPOLYLINE
  5
FD
100
AcDbEntity
  8
First Cut
  6
ByLayer
 62
  256
370
   -1
100
AcDbPolyline
 90
    4
 70
    1
 43
0
 10
260.0000000000001
 20
20.04785156246019
 10
270.0000000000001
 20
20.04785156246019
 10
270.0000000000001
 20
16.54785156246019
 10
260.0000000000001
 20
16.54785156246019
  0
LWPOLYLINE
  5
FE
100
AcDbEntity
  8
First Cut
  6
ByLayer
 62
  256
370
   -1
100
AcDbPolyline
 90
    4
 70
    1
 43
0
 10
285.0000000000001
 20
20.04785156246019
 10
295.0000000000001
 20
20.04785156246019
 10
295.0000000000001
 20
16.54785156246019
 10
285.0000000000001
 20
16.54785156246019
  0
LWPOLYLINE
  5
FF
100
AcDbEntity
  8
First Cut
  6
ByLayer
 62
  256
370
   -1
100
AcDbPolyline
 90
    4
 70
    1
 43
0
 10
310.0000000000001
 20
20.04785156246019
 10
320.0000000000001
 20
20.04785156246019
 10
320.0000000000001
 20
16.54785156246019
 10
310.0000000000001
 20
16.54785156246019
  0
LINE
  5
100
100
AcDbEntity
  8
First Cut
  6
ByLayer
 62
  256
370
   -1
100
AcDbLine
 10
165
 20
48.54785156246019
 11
170
 21
48.54785156246019
  0
LINE
  5
101
100
AcDbEntity
  8
First Cut
  6
ByLayer
 62
  256
370
   -1
100
AcDbLine
 10
170
 20
45.04785156246019
 11
185.0000000000001
 21
45.04785156246019
  0
LINE
  5
102
100
AcDbEntity
  8
First Cut
  6
ByLayer
 62
  256
370
   -1
100
AcDbLine
 10
195.0000000000001
 20
45.04785156246019
 11
210.0000000000001
 21
45.04785156246019
  0
LINE
  5
103
100
AcDbEntity
  8
First Cut
  6
ByLayer
 62
  256
370
   -1
100
AcDbLine
 10
220.0000000000001
 20
45.04785156246019
 11
235.0000000000001
 21
45.04785156246019
  0
LINE
  5
104
100
AcDbEntity
  8
First Cut
  6
ByLayer
 62
  256
370
   -1
100
AcDbLine
 10
245.0000000000001
 20
45.04785156246019
 11
260.0000000000001
 21
45.04785156246019
  0
LINE
  5
105
100
AcDbEntity
  8
First Cut
  6
ByLayer
 62
  256
370
   -1
100
AcDbLine
 10
270.0000000000001
 20
45.04785156246019
 11
285.0000000000001
 21
45.04785156246019
  0
LINE
  5
106
100
AcDbEntity
  8
First Cut
  6
ByLayer
 62
  256
370
   -1
100
AcDbLine
 10
295.0000000000001
 20
45.04785156246019
 11
310.0000000000001
 21
45.04785156246019
  0
LINE
  5
107
100
AcDbEntity
  8
First Cut
  6
ByLayer
 62
  256
370
   -1
100
AcDbLine
 10
320.0000000000001
 20
45.04785156246019
 11
335.0000000000001
 21
45.04785156246019
  0
LINE
  5
108
100
AcDbEntity
  8
First Cut
  6
ByLayer
 62
  256
370
   -1
100
AcDbLine
 10
170
 20
48.54785156246019
 11
170
 21
45.04785156246019
  0
LINE
  5
109
100
AcDbEntity
  8
First Cut
  6
ByLayer
 62
  256
370
   -1
100
AcDbLine
 10
185.0000000000001
 20
45.04785156246019
 11
185.0000000000001
 21
48.54785156246019
  0
LINE
  5
10A
100
AcDbEntity
  8
First Cut
  6
ByLayer
 62
  256
370
   -1
100
AcDbLine
 10
195.0000000000001
 20
48.54785156246019
 11
195.0000000000001
 21
45.04785156246019
  0
LINE
  5
10B
100
AcDbEntity
  8
First Cut
  6
ByLayer
 62
  256
370
   -1
100
AcDbLine
 10
210.0000000000001
 20
45.04785156246019
 11
210.0000000000001
 21
48.54785156246019
  0
LINE
  5
10C
100
AcDbEntity
  8
First Cut
  6
ByLayer
 62
  256
370
   -1
100
AcDbLine
 10
220.0000000000001
 20
48.54785156246019
 11
220.0000000000001
 21
45.04785156246019
  0
LINE
  5
10D
100
AcDbEntity
  8
First Cut
  6
ByLayer
 62
  256
370
   -1
100
AcDbLine
 10
235.0000000000001
 20
45.04785156246019
 11
235.0000000000001
 21
48.54785156246019
  0
LINE
  5
10E
100
AcDbEntity
  8
First Cut
  6
ByLayer
 62
  256
370
   -1
100
AcDbLine
 10
245.0000000000001
 20
48.54785156246019
 11
245.0000000000001
 21
45.04785156246019
  0
LINE
  5
10F
100
AcDbEntity
  8
First Cut
  6
ByLayer
 62
  256
370
   -1
100
AcDbLine
 10
260.0000000000001
 20
45.04785156246019
 11
260.0000000000001
 21
48.54785156246019
  0
LINE
  5
110
100
AcDbEntity
  8
First Cut
  6
ByLayer
 62
  256
370
   -1
100
AcDbLine
 10
270.0000000000001
 20
48.54785156246019
 11
270.0000000000001
 21
45.04785156246019
  0
LINE
  5
111
100
AcDbEntity
  8
First Cut
  6
ByLayer
 62
  256
370
   -1
100
AcDbLine
 10
285.0000000000001
 20
45.04785156246019
 11
285.0000000000001
 21
48.54785156246019
  0
LINE
  5
112
100
AcDbEntity
  8
First Cut
  6
ByLayer
 62
  256
370
   -1
100
AcDbLine
 10
295.0000000000001
 20
48.54785156246019
 11
295.0000000000001
 21
45.04785156246019
  0
LINE
  5
113
100
AcDbEntity
  8
First Cut
  6
ByLayer
 62
  256
370
   -1
100
AcDbLine
 10
310.0000000000001
 20
45.04785156246019
 11
310.0000000000001
 21
48.54785156246019
  0
LINE
  5
114
100
AcDbEntity
  8
First Cut
  6
ByLayer
 62
  256
370
   -1
100
AcDbLine
 10
320.0000000000001
 20
48.54785156246019
 11
320.0000000000001
 21
45.04785156246019
  0
LINE
  5
115
100
AcDbEntity
  8
First Cut
  6
ByLayer
 62
  256
370
   -1
100
AcDbLine
 10
335.0000000000001
 20
45.04785156246019
 11
335.0000000000001
 21
48.54785156246019
  0
CIRCLE
  5
116
100
AcDbEntity
  8
First Cut
  6
ByLayer
 62
  256
370
   -1
100
AcDbCircle
 10
186.4285714285715
 20
-16.95214843753981
 40
10
  0
CIRCLE
  5
117
100
AcDbEntity
  8
First Cut
  6
ByLayer
 62
  256
370
   -1
100
AcDbCircle
 10
212.8571428571429
 20
-3.45214843753981
 40
10
  0
CIRCLE
  5
118
100
AcDbEntity
  8
First Cut
  6
ByLayer
 62
  256
370
   -1
100
AcDbCircle
 10
239.2857142857143
 20
-16.95214843753981
 40
10
  0
CIRCLE
  5
119
100
AcDbEntity
  8
First Cut
  6
ByLayer
 62
  256
370
   -1
100
AcDbCircle
 10
265.7142857142859
 20
-3.45214843753981
 40
10
  0
CIRCLE
  5
11A
100
AcDbEntity
  8
First Cut
  6
ByLayer
 62
  256
370
   -1
100
AcDbCircle
 10
292.1428571428572
 20
-16.95214843753981
 40
10
  0
CIRCLE
  5
11B
100
AcDbEntity
  8
First Cut
  6
ByLayer
 62
  256
370
   -1
100
AcDbCircle
 10
318.5714285714288
 20
-3.45214843753981
 40
10
  0
LINE
  5
11C
100
AcDbEntity
  8
First Cut
  6
ByLayer
 62
  256
370
   -1
100
AcDbLine
 10
162
 20
73.54785156246018
 11
170
 21
73.54785156246018
  0
LINE
  5
11D
100
AcDbEntity
  8
First Cut
  6
ByLayer
 62
  256
370
   -1
100
AcDbLine
 10
170
 20
73.54785156246018
 11
170
 21
77.04785156246018
  0
LINE
  5
11E
100
AcDbEntity
  8
First Cut
  6
ByLayer
 62
  256
370
   -1
100
AcDbLine
 10
170
 20
77.04785156246018
 11
180
 21
77.04785156246018
  0
LINE
  5
11F
100
AcDbEntity
  8
First Cut
  6
ByLayer
 62
  256
370
   -1
100
AcDbLine
 10
180
 20
77.04785156246018
 11
180
 21
73.54785156246018
  0
LINE
  5
120
100
AcDbEntity
  8
First Cut
  6
ByLayer
 62
  256
370
   -1
100
AcDbLine
 10
180
 20
73.54785156246018
 11
195.0000000000001
 21
73.54785156246018
  0
LINE
  5
121
100
AcDbEntity
  8
First Cut
  6
ByLayer
 62
  256
370
   -1
100
AcDbLine
 10
195.0000000000001
 20
73.54785156246018
 11
195.0000000000001
 21
77.04785156246018
  0
LINE
  5
122
100
AcDbEntity
  8
First Cut
  6
ByLayer
 62
  256
370
   -1
100
AcDbLine
 10
195.0000000000001
 20
77.04785156246018
 11
205.0000000000001
 21
77.04785156246018
  0
LINE
  5
123
100
AcDbEntity
  8
First Cut
  6
ByLayer
 62
  256
370
   -1
100
AcDbLine
 10
205.0000000000001
 20
77.04785156246018
 11
205.0000000000001
 21
73.54785156246018
  0
LINE
  5
124
100
AcDbEntity
  8
First Cut
  6
ByLayer
 62
  256
370
   -1
100
AcDbLine
 10
205.0000000000001
 20
73.54785156246018
 11
220.0000000000001
 21
73.54785156246018
  0
LINE
  5
125
100
AcDbEntity
  8
First Cut
  6
ByLayer
 62
  256
370
   -1
100
AcDbLine
 10
220.0000000000001
 20
73.54785156246018
 11
220.0000000000001
 21
77.04785156246018
  0
LINE
  5
126
100
AcDbEntity
  8
First Cut
  6
ByLayer
 62
  256
370
   -1
100
AcDbLine
 10
220.0000000000001
 20
77.04785156246018
 11
230.0000000000001
 21
77.04785156246018
  0
LINE
  5
127
100
AcDbEntity
  8
First Cut
  6
ByLayer
 62
  256
370
   -1
100
AcDbLine
 10
230.0000000000001
 20
77.04785156246018
 11
230.0000000000001
 21
73.54785156246018
  0
LINE
  5
128
100
AcDbEntity
  8
First Cut
  6
ByLayer
 62
  256
370
   -1
100
AcDbLine
 10
230.0000000000001
 20
73.54785156246018
 11
245.0000000000001
 21
73.54785156246018
  0
LINE
  5
129
100
AcDbEntity
  8
First Cut
  6
ByLayer
 62
  256
370
   -1
100
AcDbLine
 10
245.0000000000001
 20
73.54785156246018
 11
245.0000000000001
 21
77.04785156246018
  0
LINE
  5
12A
100
AcDbEntity
  8
First Cut
  6
ByLayer
 62
  256
370
   -1
100
AcDbLine
 10
245.0000000000001
 20
77.04785156246018
 11
255.0000000000001
 21
77.04785156246018
  0
LINE
  5
12B
100
AcDbEntity
  8
First Cut
  6
ByLayer
 62
  256
370
   -1
100
AcDbLine
 10
255.0000000000001
 20
77.04785156246018
 11
255.0000000000001
 21
73.54785156246018
  0
LINE
  5
12C
100
AcDbEntity
  8
First Cut
  6
ByLayer
 62
  256
370
   -1
100
AcDbLine
 10
255.0000000000001
 20
73.54785156246018
 11
270.0000000000001
 21
73.54785156246018
  0
LINE
  5
12D
100
AcDbEntity
  8
First Cut
  6
ByLayer
 62
  256
370
   -1
100
AcDbLine
 10
270.0000000000001
 20
73.54785156246018
 11
270.0000000000001
 21
77.04785156246018
  0
LINE
  5
12E
100
AcDbEntity
  8
First Cut
  6
ByLayer
 62
  256
370
   -1
100
AcDbLine
 10
270.0000000000001
 20
77.04785156246018
 11
280.0000000000001
 21
77.04785156246018
  0
LINE
  5
12F
100
AcDbEntity
  8
First Cut
  6
ByLayer
 62
  256
370
   -1
100
AcDbLine
 10
280.0000000000001
 20
77.04785156246018
 11
280.0000000000001
 21
73.54785156246018
  0
LINE
  5
130
100
AcDbEntity
  8
First Cut
  6
ByLayer
 62
  256
370
   -1
100
AcDbLine
 10
280.0000000000001
 20
73.54785156246018
 11
295.0000000000001
 21
73.54785156246018
  0
LINE
  5
131
100
AcDbEntity
  8
First Cut
  6
ByLayer
 62
  256
370
   -1
100
AcDbLine
 10
295.0000000000001
 20
73.54785156246018
 11
295.0000000000001
 21
77.04785156246018
  0
LINE
  5
132
100
AcDbEntity
  8
First Cut
  6
ByLayer
 62
  256
370
   -1
100
AcDbLine
 10
295.0000000000001
 20
77.04785156246018
 11
305.0000000000001
 21
77.04785156246018
  0
LINE
  5
133
100
AcDbEntity
  8
First Cut
  6
ByLayer
 62
  256
370
   -1
100
AcDbLine
 10
305.0000000000001
 20
77.04785156246018
 11
305.0000000000001
 21
73.54785156246018
  0
LINE
  5
134
100
AcDbEntity
  8
First Cut
  6
ByLayer
 62
  256
370
   -1
100
AcDbLine
 10
305.0000000000001
 20
73.54785156246018
 11
320.0000000000001
 21
73.54785156246018
  0
LINE
  5
135
100
AcDbEntity
  8
First Cut
  6
ByLayer
 62
  256
370
   -1
100
AcDbLine
 10
320.0000000000001
 20
73.54785156246018
 11
320.0000000000001
 21
77.04785156246018
  0
LINE
  5
136
100
AcDbEntity
  8
First Cut
  6
ByLayer
 62
  256
370
   -1
100
AcDbLine
 10
320.0000000000001
 20
77.04785156246018
 11
330.0000000000001
 21
77.04785156246018
  0
LINE
  5
137
100
AcDbEntity
  8
First Cut
  6
ByLayer
 62
  256
370
   -1
100
AcDbLine
 10
330.0000000000001
 20
77.04785156246018
 11
330.0000000000001
 21
73.54785156246018
  0
LINE
  5
138
100
AcDbEntity
  8
First Cut
  6
ByLayer
 62
  256
370
   -1
100
AcDbLine
 10
330.0000000000001
 20
73.54785156246018
 11
345.0000000000001
 21
73.54785156246018
  0
LINE
  5
139
100
AcDbEntity
  8
First Cut
  6
ByLayer
 62
  256
370
   -1
100
AcDbLine
 10
345.0000000000001
 20
48.54785156246019
 11
330.0000000000001
 21
48.54785156246019
  0
LINE
  5
13A
100
AcDbEntity
  8
First Cut
  6
ByLayer
 62
  256
370
   -1
100
AcDbLine
 10
330.0000000000001
 20
48.54785156246019
 11
330.0000000000001
 21
45.04785156246019
  0
LINE
  5
13B
100
AcDbEntity
  8
First Cut
  6
ByLayer
 62
  256
370
   -1
100
AcDbLine
 10
320.0000000000001
 20
45.04785156246019
 11
320.0000000000001
 21
48.54785156246019
  0
LINE
  5
13C
100
AcDbEntity
  8
First Cut
  6
ByLayer
 62
  256
370
   -1
100
AcDbLine
 10
320.0000000000001
 20
48.54785156246019
 11
305.0000000000001
 21
48.54785156246019
  0
LINE
  5
13D
100
AcDbEntity
  8
First Cut
  6
ByLayer
 62
  256
370
   -1
100
AcDbLine
 10
305.0000000000001
 20
48.54785156246019
 11
305.0000000000001
 21
45.04785156246019
  0
LINE
  5
13E
100
AcDbEntity
  8
First Cut
  6
ByLayer
 62
  256
370
   -1
100
AcDbLine
 10
295.0000000000001
 20
45.04785156246019
 11
295.0000000000001
 21
48.54785156246019
  0
LINE
  5
13F
100
AcDbEntity
  8
First Cut
  6
ByLayer
 62
  256
370
   -1
100
AcDbLine
 10
295.0000000000001
 20
48.54785156246019
 11
280.0000000000001
 21
48.54785156246019
  0
LINE
  5
140
100
AcDbEntity
  8
First Cut
  6
ByLayer
 62
  256
370
   -1
100
AcDbLine
 10
280.0000000000001
 20
48.54785156246019
 11
280.0000000000001
 21
45.04785156246019
  0
LINE
  5
141
100
AcDbEntity
  8
First Cut
  6
ByLayer
 62
  256
370
   -1
100
AcDbLine
 10
270.0000000000001
 20
45.04785156246019
 11
270.0000000000001
 21
48.54785156246019
  0
LINE
  5
142
100
AcDbEntity
  8
First Cut
  6
ByLayer
 62
  256
370
   -1
100
AcDbLine
 10
270.0000000000001
 20
48.54785156246019
 11
255.0000000000001
 21
48.54785156246019
  0
LINE
  5
143
100
AcDbEntity
  8
First Cut
  6
ByLayer
 62
  256
370
   -1
100
AcDbLine
 10
255.0000000000001
 20
48.54785156246019
 11
255.0000000000001
 21
45.04785156246019
  0
LINE
  5
144
100
AcDbEntity
  8
First Cut
  6
ByLayer
 62
  256
370
   -1
100
AcDbLine
 10
245.0000000000001
 20
45.04785156246019
 11
245.0000000000001
 21
48.54785156246019
  0
LINE
  5
145
100
AcDbEntity
  8
First Cut
  6
ByLayer
 62
  256
370
   -1
100
AcDbLine
 10
245.0000000000001
 20
48.54785156246019
 11
230.0000000000001
 21
48.54785156246019
  0
LINE
  5
146
100
AcDbEntity
  8
First Cut
  6
ByLayer
 62
  256
370
   -1
100
AcDbLine
 10
230.0000000000001
 20
48.54785156246019
 11
230.0000000000001
 21
45.04785156246019
  0
LINE
  5
147
100
AcDbEntity
  8
First Cut
  6
ByLayer
 62
  256
370
   -1
100
AcDbLine
 10
220.0000000000001
 20
45.04785156246019
 11
220.0000000000001
 21
48.54785156246019
  0
LINE
  5
148
100
AcDbEntity
  8
First Cut
  6
ByLayer
 62
  256
370
   -1
100
AcDbLine
 10
220.0000000000001
 20
48.54785156246019
 11
205.0000000000001
 21
48.54785156246019
  0
LINE
  5
149
100
AcDbEntity
  8
First Cut
  6
ByLayer
 62
  256
370
   -1
100
AcDbLine
 10
205.0000000000001
 20
48.54785156246019
 11
205.0000000000001
 21
45.04785156246019
  0
LINE
  5
14A
100
AcDbEntity
  8
First Cut
  6
ByLayer
 62
  256
370
   -1
100
AcDbLine
 10
195.0000000000001
 20
45.04785156246019
 11
195.0000000000001
 21
48.54785156246019
  0
LINE
  5
14B
100
AcDbEntity
  8
First Cut
  6
ByLayer
 62
  256
370
   -1
100
AcDbLine
 10
195.0000000000001
 20
48.54785156246019
 11
180
 21
48.54785156246019
  0
LINE
  5
14C
100
AcDbEntity
  8
First Cut
  6
ByLayer
 62
  256
370
   -1
100
AcDbLine
 10
180
 20
48.54785156246019
 11
180
 21
45.04785156246019
  0
LINE
  5
14D
100
AcDbEntity
  8
First Cut
  6
ByLayer
 62
  256
370
   -1
100
AcDbLine
 10
170
 20
45.04785156246019
 11
170
 21
48.54785156246019
  0
LINE
  5
14E
100
AcDbEntity
  8
First Cut
  6
ByLayer
 62
  256
370
   -1
100
AcDbLine
 10
170
 20
48.54785156246019
 11
162
 21
48.54785156246019
  0
LWPOLYLINE
  5
14F
100
AcDbEntity
  8
First Cut
  6
ByLayer
 62
  256
370
   -1
100
AcDbPolyline
 90
    4
 70
    1
 43
0
 10
320
 20
102.0478515624602
 10
310
 20
102.0478515624602
 10
310
 20
105.5478515624602
 10
320
 20
105.5478515624602
  0
LWPOLYLINE
  5
150
100
AcDbEntity
  8
First Cut
  6
ByLayer
 62
  256
370
   -1
100
AcDbPolyline
 90
    4
 70
    1
 43
0
 10
295
 20
102.0478515624602
 10
285
 20
102.0478515624602
 10
285
 20
105.5478515624602
 10
295
 20
105.5478515624602
  0
LWPOLYLINE
  5
151
100
AcDbEntity
  8
First Cut
  6
ByLayer
 62
  256
370
   -1
100
AcDbPolyline
 90
    4
 70
    1
 43
0
 10
270
 20
102.0478515624602
 10
260
 20
102.0478515624602
 10
260
 20
105.5478515624602
 10
270
 20
105.5478515624602
  0
LWPOLYLINE
  5
152
100
AcDbEntity
  8
First Cut
  6
ByLayer
 62
  256
370
   -1
100
AcDbPolyline
 90
    4
 70
    1
 43
0
 10
245
 20
102.0478515624602
 10
235
 20
102.0478515624602
 10
235
 20
105.5478515624602
 10
245
 20
105.5478515624602
  0
LWPOLYLINE
  5
153
100
AcDbEntity
  8
First Cut
  6
ByLayer
 62
  256
370
   -1
100
AcDbPolyline
 90
    4
 70
    1
 43
0
 10
220
 20
102.0478515624602
 10
210
 20
102.0478515624602
 10
210
 20
105.5478515624602
 10
220
 20
105.5478515624602
  0
LWPOLYLINE
  5
154
100
AcDbEntity
  8
First Cut
  6
ByLayer
 62
  256
370
   -1
100
AcDbPolyline
 90
    4
 70
    1
 43
0
 10
195
 20
102.0478515624602
 10
185
 20
102.0478515624602
 10
185
 20
105.5478515624602
 10
195
 20
105.5478515624602
  0
LINE
  5
155
100
AcDbEntity
  8
First Cut
  6
ByLayer
 62
  256
370
   -1
100
AcDbLine
 10
335
 20
77.04785156246018
 11
320
 21
77.04785156246018
  0
LINE
  5
156
100
AcDbEntity
  8
First Cut
  6
ByLayer
 62
  256
370
   -1
100
AcDbLine
 10
310
 20
77.04785156246018
 11
295
 21
77.04785156246018
  0
LINE
  5
157
100
AcDbEntity
  8
First Cut
  6
ByLayer
 62
  256
370
   -1
100
AcDbLine
 10
285
 20
77.04785156246018
 11
270
 21
77.04785156246018
  0
LINE
  5
158
100
AcDbEntity
  8
First Cut
  6
ByLayer
 62
  256
370
   -1
100
AcDbLine
 10
260
 20
77.04785156246018
 11
245
 21
77.04785156246018
  0
LINE
  5
159
100
AcDbEntity
  8
First Cut
  6
ByLayer
 62
  256
370
   -1
100
AcDbLine
 10
235
 20
77.04785156246018
 11
220
 21
77.04785156246018
  0
LINE
  5
15A
100
AcDbEntity
  8
First Cut
  6
ByLayer
 62
  256
370
   -1
100
AcDbLine
 10
210
 20
77.04785156246018
 11
195
 21
77.04785156246018
  0
LINE
  5
15B
100
AcDbEntity
  8
First Cut
  6
ByLayer
 62
  256
370
   -1
100
AcDbLine
 10
185
 20
77.04785156246018
 11
170
 21
77.04785156246018
  0
LINE
  5
15C
100
AcDbEntity
  8
First Cut
  6
ByLayer
 62
  256
370
   -1
100
AcDbLine
 10
335
 20
73.54785156246018
 11
335
 21
77.04785156246018
  0
LINE
  5
15D
100
AcDbEntity
  8
First Cut
  6
ByLayer
 62
  256
370
   -1
100
AcDbLine
 10
320
 20
77.04785156246018
 11
320
 21
73.54785156246018
  0
LINE
  5
15E
100
AcDbEntity
  8
First Cut
  6
ByLayer
 62
  256
370
   -1
100
AcDbLine
 10
310
 20
73.54785156246018
 11
310
 21
77.04785156246018
  0
LINE
  5
15F
100
AcDbEntity
  8
First Cut
  6
ByLayer
 62
  256
370
   -1
100
AcDbLine
 10
295
 20
77.04785156246018
 11
295
 21
73.54785156246018
  0
LINE
  5
160
100
AcDbEntity
  8
First Cut
  6
ByLayer
 62
  256
370
   -1
100
AcDbLine
 10
285
 20
73.54785156246018
 11
285
 21
77.04785156246018
  0
LINE
  5
161
100
AcDbEntity
  8
First Cut
  6
ByLayer
 62
  256
370
   -1
100
AcDbLine
 10
270
 20
77.04785156246018
 11
270
 21
73.54785156246018
  0
LINE
  5
162
100
AcDbEntity
  8
First Cut
  6
ByLayer
 62
  256
370
   -1
100
AcDbLine
 10
260
 20
73.54785156246018
 11
260
 21
77.04785156246018
  0
LINE
  5
163
100
AcDbEntity
  8
First Cut
  6
ByLayer
 62
  256
370
   -1
100
AcDbLine
 10
245
 20
77.04785156246018
 11
245
 21
73.54785156246018
  0
LINE
  5
164
100
AcDbEntity
  8
First Cut
  6
ByLayer
 62
  256
370
   -1
100
AcDbLine
 10
235
 20
73.54785156246018
 11
235
 21
77.04785156246018
  0
LINE
  5
165
100
AcDbEntity
  8
First Cut
  6
ByLayer
 62
  256
370
   -1
100
AcDbLine
 10
220
 20
77.04785156246018
 11
220
 21
73.54785156246018
  0
LINE
  5
166
100
AcDbEntity
  8
First Cut
  6
ByLayer
 62
  256
370
   -1
100
AcDbLine
 10
210
 20
73.54785156246018
 11
210
 21
77.04785156246018
  0
LINE
  5
167
100
AcDbEntity
  8
First Cut
  6
ByLayer
 62
  256
370
   -1
100
AcDbLine
 10
195
 20
77.04785156246018
 11
195
 21
73.54785156246018
  0
LINE
  5
168
100
AcDbEntity
  8
First Cut
  6
ByLayer
 62
  256
370
   -1
100
AcDbLine
 10
185
 20
73.54785156246018
 11
185
 21
77.04785156246018
  0
LINE
  5
169
100
AcDbEntity
  8
First Cut
  6
ByLayer
 62
  256
370
   -1
100
AcDbLine
 10
170
 20
77.04785156246018
 11
170
 21
73.54785156246018
  0
CIRCLE
  5
16A
100
AcDbEntity
  8
First Cut
  6
ByLayer
 62
  256
370
   -1
100
AcDbCircle
 10
318.5714285714286
 20
139.0478515624602
 40
10
  0
CIRCLE
  5
16B
100
AcDbEntity
  8
First Cut
  6
ByLayer
 62
  256
370
   -1
100
AcDbCircle
 10
292.1428571428572
 20
125.5478515624602
 40
10
  0
CIRCLE
  5
16C
100
AcDbEntity
  8
First Cut
  6
ByLayer
 62
  256
370
   -1
100
AcDbCircle
 10
265.7142857142858
 20
139.0478515624602
 40
10
  0
CIRCLE
  5
16D
100
AcDbEntity
  8
First Cut
  6
ByLayer
 62
  256
370
   -1
100
AcDbCircle
 10
239.2857142857143
 20
125.5478515624602
 40
10
  0
CIRCLE
  5
16E
100
AcDbEntity
  8
First Cut
  6
ByLayer
 62
  256
370
   -1
100
AcDbCircle
 10
212.8571428571429
 20
139.0478515624602
 40
10
  0
CIRCLE
  5
16F
100
AcDbEntity
  8
First Cut
  6
ByLayer
 62
  256
370
   -1
100
AcDbCircle
 10
186.4285714285712
 20
125.5478515624602
 40
10
  0
LINE
  5
170
100
AcDbEntity
  8
First Cut
  6
ByLayer
 62
  256
370
   -1
100
AcDbLine
 10
160
 20
-38.45214843753982
 11
345.0000000000001
 21
-38.45214843753981
  0
LINE
  5
171
100
AcDbEntity
  8
First Cut
  6
ByLayer
 62
  256
370
   -1
100
AcDbLine
 10
345.0000000000001
 20
73.54785156246018
 11
345.0000000000001
 21
77.04785156246018
  0
LINE
  5
172
100
AcDbEntity
  8
First Cut
  6
ByLayer
 62
  256
370
   -1
100
AcDbLine
 10
345.0000000000001
 20
45.04785156246019
 11
345.0000000000001
 21
48.54785156246019
  0
LINE
  5
173
100
AcDbEntity
  8
0
  6
ByLayer
 62
  256
370
   -1
100
AcDbLine
 10
375
 20
-38.45214843753982
 11
430
 21
-38.45214843753982
  0
LINE
  5
174
100
AcDbEntity
  8
0
  6
ByLayer
 62
  256
370
   -1
100
AcDbLine
 10
160
 20
-142.4521484375398
 11
160
 21
-38.45214843753982
  0
LINE
  5
175
100
AcDbEntity
  8
0
  6
ByLayer
 62
  256
370
   -1
100
AcDbLine
 10
375.0000000000002
 20
-246.4521484375398
 11
160
 21
-246.4521484375398
  0
LINE
  5
176
100
AcDbEntity
  8
0
  6
ByLayer
 62
  256
370
   -1
100
AcDbLine
 10
160
 20
-246.4521484375398
 11
160
 21
-142.4521484375398
  0
LINE
  5
177
100
AcDbEntity
  8
0
  6
ByLayer
 62
  256
370
   -1
100
AcDbLine
 10
420
 20
-241.4521484375398
 11
405
 21
-241.4521484375398
  0
LINE
  5
178
100
AcDbEntity
  8
0
  6
ByLayer
 62
  256
370
   -1
100
AcDbLine
 10
390
 20
-241.4521484375398
 11
375
 21
-241.4521484375398
  0
LINE
  5
179
100
AcDbEntity
  8
0
  6
ByLayer
 62
  256
370
   -1
100
AcDbLine
 10
437.5
 20
-142.4521484375398
 11
437.5
 21
-133.9521484375398
  0
LINE
  5
17A
100
AcDbEntity
  8
0
  6
ByLayer
 62
  256
370
   -1
100
AcDbLine
 10
637.5
 20
-133.9521484375398
 11
637.5
 21
-142.4521484375398
  0
LINE
  5
17B
100
AcDbEntity
  8
0
  6
ByLayer
 62
  256
370
   -1
100
AcDbLine
 10
637.5
 20
-142.4521484375398
 11
645
 21
-142.4521484375398
  0
LINE
  5
17C
100
AcDbEntity
  8
0
  6
ByLayer
 62
  256
370
   -1
100
AcDbLine
 10
645
 20
-142.4521484375398
 11
645
 21
-38.45214843753982
  0
LINE
  5
17D
100
AcDbEntity
  8
0
  6
ByLayer
 62
  256
370
   -1
100
AcDbLine
 10
645
 20
-38.45214843753982
 11
637.5
 21
-38.45214843753982
  0
LINE
  5
17E
100
AcDbEntity
  8
0
  6
ByLayer
 62
  256
370
   -1
100
AcDbLine
 10
637.5
 20
-38.45214843753982
 11
637.5
 21
-46.95214843753982
  0
LINE
  5
17F
100
AcDbEntity
  8
0
  6
ByLayer
 62
  256
370
   -1
100
AcDbLine
 10
437.5
 20
-46.95214843753982
 11
437.5
 21
-38.45214843753982
  0
LINE
  5
180
100
AcDbEntity
  8
0
  6
ByLayer
 62
  256
370
   -1
100
AcDbLine
 10
437.5
 20
-38.45214843753982
 11
430
 21
-38.45214843753982
  0
LINE
  5
181
100
AcDbEntity
  8
0
  6
ByLayer
 62
  256
370
   -1
100
AcDbLine
 10
470
 20
-133.9521484375398
 11
470
 21
-137.4521484375398
  0
LINE
  5
182
100
AcDbEntity
  8
0
  6
ByLayer
 62
  256
370
   -1
100
AcDbLine
 10
437.5
 20
-133.9521484375398
 11
470
 21
-133.9521484375398
  0
LINE
  5
183
100
AcDbEntity
  8
0
  6
ByLayer
 62
  256
370
   -1
100
AcDbLine
 10
555
 20
-137.4521484375398
 11
555
 21
-133.9521484375398
  0
LINE
  5
184
100
AcDbEntity
  8
0
  6
ByLayer
 62
  256
370
   -1
100
AcDbLine
 10
555
 20
-133.9521484375398
 11
570
 21
-133.9521484375398
  0
LINE
  5
185
100
AcDbEntity
  8
0
  6
ByLayer
 62
  256
370
   -1
100
AcDbLine
 10
570
 20
-133.9521484375398
 11
570
 21
-137.4521484375398
  0
LINE
  5
186
100
AcDbEntity
  8
0
  6
ByLayer
 62
  256
370
   -1
100
AcDbLine
 10
570
 20
-137.4521484375398
 11
580
 21
-137.4521484375398
  0
LINE
  5
187
100
AcDbEntity
  8
0
  6
ByLayer
 62
  256
370
   -1
100
AcDbLine
 10
580
 20
-137.4521484375398
 11
580
 21
-133.9521484375398
  0
LINE
  5
188
100
AcDbEntity
  8
0
  6
ByLayer
 62
  256
370
   -1
100
AcDbLine
 10
580
 20
-133.9521484375398
 11
595
 21
-133.9521484375398
  0
LINE
  5
189
100
AcDbEntity
  8
0
  6
ByLayer
 62
  256
370
   -1
100
AcDbLine
 10
595
 20
-133.9521484375398
 11
595
 21
-137.4521484375398
  0
LINE
  5
18A
100
AcDbEntity
  8
0
  6
ByLayer
 62
  256
370
   -1
100
AcDbLine
 10
595
 20
-137.4521484375398
 11
605
 21
-137.4521484375398
  0
LINE
  5
18B
100
AcDbEntity
  8
0
  6
ByLayer
 62
  256
370
   -1
100
AcDbLine
 10
605
 20
-137.4521484375398
 11
605
 21
-133.9521484375398
  0
LINE
  5
18C
100
AcDbEntity
  8
0
  6
ByLayer
 62
  256
370
   -1
100
AcDbLine
 10
605
 20
-133.9521484375398
 11
637.5
 21
-133.9521484375398
  0
LINE
  5
18D
100
AcDbEntity
  8
0
  6
ByLayer
 62
  256
370
   -1
100
AcDbLine
 10
437.5
 20
-46.95214843753982
 11
470
 21
-46.95214843753982
  0
LINE
  5
18E
100
AcDbEntity
  8
0
  6
ByLayer
 62
  256
370
   -1
100
AcDbLine
 10
470
 20
-46.95214843753982
 11
470
 21
-43.45214843753982
  0
LINE
  5
18F
100
AcDbEntity
  8
0
  6
ByLayer
 62
  256
370
   -1
100
AcDbLine
 10
470
 20
-43.45214843753982
 11
480
 21
-43.45214843753982
  0
LINE
  5
190
100
AcDbEntity
  8
0
  6
ByLayer
 62
  256
370
   -1
100
AcDbLine
 10
480
 20
-43.45214843753982
 11
480
 21
-46.95214843753982
  0
LINE
  5
191
100
AcDbEntity
  8
0
  6
ByLayer
 62
  256
370
   -1
100
AcDbLine
 10
480
 20
-46.95214843753982
 11
495
 21
-46.95214843753982
  0
LINE
  5
192
100
AcDbEntity
  8
0
  6
ByLayer
 62
  256
370
   -1
100
AcDbLine
 10
495
 20
-46.95214843753982
 11
495
 21
-43.45214843753982
  0
LINE
  5
193
100
AcDbEntity
  8
0
  6
ByLayer
 62
  256
370
   -1
100
AcDbLine
 10
495
 20
-43.45214843753982
 11
505
 21
-43.45214843753982
  0
LINE
  5
194
100
AcDbEntity
  8
0
  6
ByLayer
 62
  256
370
   -1
100
AcDbLine
 10
505
 20
-43.45214843753982
 11
505
 21
-46.95214843753982
  0
LINE
  5
195
100
AcDbEntity
  8
0
  6
ByLayer
 62
  256
370
   -1
100
AcDbLine
 10
505
 20
-46.95214843753982
 11
520
 21
-46.95214843753982
  0
LINE
  5
196
100
AcDbEntity
  8
0
  6
ByLayer
 62
  256
370
   -1
100
AcDbLine
 10
520
 20
-46.95214843753982
 11
520
 21
-43.45214843753982
  0
LINE
  5
197
100
AcDbEntity
  8
0
  6
ByLayer
 62
  256
370
   -1
100
AcDbLine
 10
520
 20
-43.45214843753982
 11
530
 21
-43.45214843753982
  0
LINE
  5
198
100
AcDbEntity
  8
0
  6
ByLayer
 62
  256
370
   -1
100
AcDbLine
 10
530
 20
-43.45214843753982
 11
530
 21
-46.95214843753982
  0
LINE
  5
199
100
AcDbEntity
  8
0
  6
ByLayer
 62
  256
370
   -1
100
AcDbLine
 10
530
 20
-46.95214843753982
 11
545
 21
-46.95214843753982
  0
LINE
  5
19A
100
AcDbEntity
  8
0
  6
ByLayer
 62
  256
370
   -1
100
AcDbLine
 10
545
 20
-46.95214843753982
 11
545
 21
-43.45214843753982
  0
LINE
  5
19B
100
AcDbEntity
  8
0
  6
ByLayer
 62
  256
370
   -1
100
AcDbLine
 10
545
 20
-43.45214843753982
 11
555
 21
-43.45214843753982
  0
LINE
  5
19C
100
AcDbEntity
  8
0
  6
ByLayer
 62
  256
370
   -1
100
AcDbLine
 10
555
 20
-43.45214843753982
 11
555
 21
-46.95214843753982
  0
LINE
  5
19D
100
AcDbEntity
  8
0
  6
ByLayer
 62
  256
370
   -1
100
AcDbLine
 10
555
 20
-46.95214843753982
 11
570
 21
-46.95214843753982
  0
LINE
  5
19E
100
AcDbEntity
  8
0
  6
ByLayer
 62
  256
370
   -1
100
AcDbLine
 10
570
 20
-46.95214843753982
 11
570
 21
-43.45214843753982
  0
LINE
  5
19F
100
AcDbEntity
  8
0
  6
ByLayer
 62
  256
370
   -1
100
AcDbLine
 10
570
 20
-43.45214843753982
 11
580
 21
-43.45214843753982
  0
LINE
  5
1A0
100
AcDbEntity
  8
0
  6
ByLayer
 62
  256
370
   -1
100
AcDbLine
 10
580
 20
-43.45214843753982
 11
580
 21
-46.95214843753982
  0
LINE
  5
1A1
100
AcDbEntity
  8
0
  6
ByLayer
 62
  256
370
   -1
100
AcDbLine
 10
580
 20
-46.95214843753982
 11
595
 21
-46.95214843753982
  0
LINE
  5
1A2
100
AcDbEntity
  8
0
  6
ByLayer
 62
  256
370
   -1
100
AcDbLine
 10
595
 20
-46.95214843753982
 11
595
 21
-43.45214843753982
  0
LINE
  5
1A3
100
AcDbEntity
  8
0
  6
ByLayer
 62
  256
370
   -1
100
AcDbLine
 10
595
 20
-43.45214843753982
 11
605
 21
-43.45214843753982
  0
LINE
  5
1A4
100
AcDbEntity
  8
0
  6
ByLayer
 62
  256
370
   -1
100
AcDbLine
 10
605
 20
-43.45214843753982
 11
605
 21
-46.95214843753982
  0
LINE
  5
1A5
100
AcDbEntity
  8
0
  6
ByLayer
 62
  256
370
   -1
100
AcDbLine
 10
605
 20
-46.95214843753982
 11
637.5
 21
-46.95214843753982
  0
LINE
  5
1A6
100
AcDbEntity
  8
0
  6
ByLayer
 62
  256
370
   -1
100
AcDbLine
 10
637.5
 20
-46.95214843753982
 11
637.5
 21
-38.45214843753982
  0
LINE
  5
1A7
100
AcDbEntity
  8
0
  6
ByLayer
 62
  256
370
   -1
100
AcDbLine
 10
480
 20
-162.4521484375398
 11
480
 21
-165.9521484375398
  0
LINE
  5
1A8
100
AcDbEntity
  8
0
  6
ByLayer
 62
  256
370
   -1
100
AcDbLine
 10
480
 20
-165.9521484375398
 11
490
 21
-165.9521484375398
  0
LINE
  5
1A9
100
AcDbEntity
  8
0
  6
ByLayer
 62
  256
370
   -1
100
AcDbLine
 10
490
 20
-165.9521484375398
 11
490
 21
-162.4521484375398
  0
LINE
  5
1AA
100
AcDbEntity
  8
0
  6
ByLayer
 62
  256
370
   -1
100
AcDbLine
 10
490
 20
-162.4521484375398
 11
505
 21
-162.4521484375398
  0
LINE
  5
1AB
100
AcDbEntity
  8
0
  6
ByLayer
 62
  256
370
   -1
100
AcDbLine
 10
505
 20
-162.4521484375398
 11
505
 21
-165.9521484375398
  0
LINE
  5
1AC
100
AcDbEntity
  8
0
  6
ByLayer
 62
  256
370
   -1
100
AcDbLine
 10
505
 20
-165.9521484375398
 11
515
 21
-165.9521484375398
  0
LINE
  5
1AD
100
AcDbEntity
  8
0
  6
ByLayer
 62
  256
370
   -1
100
AcDbLine
 10
515
 20
-165.9521484375398
 11
515
 21
-162.4521484375398
  0
LINE
  5
1AE
100
AcDbEntity
  8
0
  6
ByLayer
 62
  256
370
   -1
100
AcDbLine
 10
515
 20
-162.4521484375398
 11
530
 21
-162.4521484375398
  0
LINE
  5
1AF
100
AcDbEntity
  8
0
  6
ByLayer
 62
  256
370
   -1
100
AcDbLine
 10
530
 20
-162.4521484375398
 11
530
 21
-165.9521484375398
  0
LINE
  5
1B0
100
AcDbEntity
  8
0
  6
ByLayer
 62
  256
370
   -1
100
AcDbLine
 10
530
 20
-165.9521484375398
 11
540
 21
-165.9521484375398
  0
LINE
  5
1B1
100
AcDbEntity
  8
0
  6
ByLayer
 62
  256
370
   -1
100
AcDbLine
 10
540
 20
-165.9521484375398
 11
540
 21
-162.4521484375398
  0
LINE
  5
1B2
100
AcDbEntity
  8
0
  6
ByLayer
 62
  256
370
   -1
100
AcDbLine
 10
466.5
 20
-162.4521484375398
 11
466.5
 21
-137.4521484375398
  0
LINE
  5
1B3
100
AcDbEntity
  8
0
  6
ByLayer
 62
  256
370
   -1
100
AcDbLine
 10
466.5
 20
-162.4521484375398
 11
480
 21
-162.4521484375398
  0
LINE
  5
1B4
100
AcDbEntity
  8
0
  6
ByLayer
 62
  256
370
   -1
100
AcDbLine
 10
553.5
 20
-162.4521484375398
 11
553.5
 21
-137.4521484375398
  0
LINE
  5
1B5
100
AcDbEntity
  8
0
  6
ByLayer
 62
  256
370
   -1
100
AcDbLine
 10
540
 20
-162.4521484375398
 11
553.5
 21
-162.4521484375398
  0
LINE
  5
1B6
100
AcDbEntity
  8
0
  6
ByLayer
 62
  256
370
   -1
100
AcDbLine
 10
553.5
 20
-137.4521484375398
 11
555
 21
-137.4521484375398
  0
LINE
  5
1B7
100
AcDbEntity
  8
0
  6
ByLayer
 62
  256
370
   -1
100
AcDbLine
 10
435
 20
-142.4521484375398
 11
437.5
 21
-142.4521484375398
  0
LINE
  5
1B8
100
AcDbEntity
  8
0
  6
ByLayer
 62
  256
370
   -1
100
AcDbLine
 10
160
 20
48.54785156246019
 11
160
 21
-38.45214843753981
  0
LINE
  5
1B9
100
AcDbEntity
  8
0
  6
ByLayer
 62
  256
370
   -1
100
AcDbLine
 10
162
 20
48.54785156246019
 11
162
 21
73.54785156246018
  0
LINE
  5
1BA
100
AcDbEntity
  8
0
  6
ByLayer
 62
  256
370
   -1
100
AcDbLine
 10
370
 20
48.54785156246027
 11
370
 21
73.54785156246018
  0
LINE
  5
1BB
100
AcDbEntity
  8
0
  6
ByLayer
 62
  256
370
   -1
100
AcDbLine
 10
345.0000000000001
 20
77.04785156246018
 11
355.0000000000001
 21
77.04785156246018
  0
LINE
  5
1BC
100
AcDbEntity
  8
0
  6
ByLayer
 62
  256
370
   -1
100
AcDbLine
 10
355.0000000000001
 20
77.04785156246018
 11
355.0000000000001
 21
73.54785156246018
  0
LINE
  5
1BD
100
AcDbEntity
  8
0
  6
ByLayer
 62
  256
370
   -1
100
AcDbLine
 10
355.0000000000001
 20
73.54785156246018
 11
370
 21
73.54785156246018
  0
LINE
  5
1BE
100
AcDbEntity
  8
0
  6
ByLayer
 62
  256
370
   -1
100
AcDbLine
 10
370
 20
48.54785156246027
 11
355.0000000000001
 21
48.54785156246019
  0
LINE
  5
1BF
100
AcDbEntity
  8
0
  6
ByLayer
 62
  256
370
   -1
100
AcDbLine
 10
355.0000000000001
 20
48.54785156246019
 11
355.0000000000001
 21
45.04785156246019
  0
LINE
  5
1C0
100
AcDbEntity
  8
0
  6
ByLayer
 62
  256
370
   -1
100
AcDbLine
 10
355.0000000000001
 20
45.04785156246019
 11
345.0000000000001
 21
45.04785156246019
  0
LINE
  5
1C1
100
AcDbEntity
  8
0
  6
ByLayer
 62
  256
370
   -1
100
AcDbLine
 10
160
 20
48.54785156246019
 11
162
 21
48.54785156246019
  0
LINE
  5
1C2
100
AcDbEntity
  8
0
  6
ByLayer
 62
  256
370
   -1
100
AcDbLine
 10
345.0000000000001
 20
45.0478515624602
 11
345.0000000000001
 21
-38.45214843753981
  0
LINE
  5
1C3
100
AcDbEntity
  8
0
  6
ByLayer
 62
  256
370
   -1
100
AcDbLine
 10
345
 20
160.5478515624602
 11
340
 21
160.5478515624602
  0
LINE
  5
1C4
100
AcDbEntity
  8
0
  6
ByLayer
 62
  256
370
   -1
100
AcDbLine
 10
320
 20
160.5478515624602
 11
310
 21
160.5478515624602
  0
LINE
  5
1C5
100
AcDbEntity
  8
0
  6
ByLayer
 62
  256
370
   -1
100
AcDbLine
 10
295
 20
160.5478515624602
 11
285
 21
160.5478515624602
  0
LINE
  5
1C6
100
AcDbEntity
  8
0
  6
ByLayer
 62
  256
370
   -1
100
AcDbLine
 10
270
 20
160.5478515624602
 11
260
 21
160.5478515624602
  0
LINE
  5
1C7
100
AcDbEntity
  8
0
  6
ByLayer
 62
  256
370
   -1
100
AcDbLine
 10
245
 20
160.5478515624602
 11
235
 21
160.5478515624602
  0
LINE
  5
1C8
100
AcDbEntity
  8
0
  6
ByLayer
 62
  256
370
   -1
100
AcDbLine
 10
220
 20
160.5478515624602
 11
210
 21
160.5478515624602
  0
LINE
  5
1C9
100
AcDbEntity
  8
0
  6
ByLayer
 62
  256
370
   -1
100
AcDbLine
 10
195
 20
160.5478515624602
 11
185
 21
160.5478515624602
  0
LINE
  5
1CA
100
AcDbEntity
  8
0
  6
ByLayer
 62
  256
370
   -1
100
AcDbLine
 10
340
 20
160.5478515624602
 11
335
 21
160.5478515624602
  0
LINE
  5
1CB
100
AcDbEntity
  8
0
  6
ByLayer
 62
  256
370
   -1
100
AcDbLine
 10
170
 20
160.5478515624602
 11
160
 21
160.5478515624602
  0
LINE
  5
1CC
100
AcDbEntity
  8
0
  6
ByLayer
 62
  256
370
   -1
100
AcDbLine
 10
335
 20
159.0478515624602
 11
320
 21
159.0478515624602
  0
LINE
  5
1CD
100
AcDbEntity
  8
0
  6
ByLayer
 62
  256
370
   -1
100
AcDbLine
 10
310
 20
159.0478515624602
 11
295
 21
159.0478515624602
  0
LINE
  5
1CE
100
AcDbEntity
  8
0
  6
ByLayer
 62
  256
370
   -1
100
AcDbLine
 10
285
 20
159.0478515624602
 11
270
 21
159.0478515624602
  0
LINE
  5
1CF
100
AcDbEntity
  8
0
  6
ByLayer
 62
  256
370
   -1
100
AcDbLine
 10
260
 20
159.0478515624602
 11
245
 21
159.0478515624602
  0
LINE
  5
1D0
100
AcDbEntity
  8
0
  6
ByLayer
 62
  256
370
   -1
100
AcDbLine
 10
235
 20
159.0478515624602
 11
220
 21
159.0478515624602
  0
LINE
  5
1D1
100
AcDbEntity
  8
0
  6
ByLayer
 62
  256
370
   -1
100
AcDbLine
 10
210
 20
159.0478515624602
 11
195
 21
159.0478515624602
  0
LINE
  5
1D2
100
AcDbEntity
  8
0
  6
ByLayer
 62
  256
370
   -1
100
AcDbLine
 10
185
 20
159.0478515624602
 11
170
 21
159.0478515624602
  0
LINE
  5
1D3
100
AcDbEntity
  8
0
  6
ByLayer
 62
  256
370
   -1
100
AcDbLine
 10
335
 20
160.5478515624602
 11
335
 21
159.0478515624602
  0
LINE
  5
1D4
100
AcDbEntity
  8
0
  6
ByLayer
 62
  256
370
   -1
100
AcDbLine
 10
320
 20
159.0478515624602
 11
320
 21
160.5478515624602
  0
LINE
  5
1D5
100
AcDbEntity
  8
0
  6
ByLayer
 62
  256
370
   -1
100
AcDbLine
 10
310
 20
160.5478515624602
 11
310
 21
159.0478515624602
  0
LINE
  5
1D6
100
AcDbEntity
  8
0
  6
ByLayer
 62
  256
370
   -1
100
AcDbLine
 10
295
 20
159.0478515624602
 11
295
 21
160.5478515624602
  0
LINE
  5
1D7
100
AcDbEntity
  8
0
  6
ByLayer
 62
  256
370
   -1
100
AcDbLine
 10
285
 20
160.5478515624602
 11
285
 21
159.0478515624602
  0
LINE
  5
1D8
100
AcDbEntity
  8
0
  6
ByLayer
 62
  256
370
   -1
100
AcDbLine
 10
270
 20
159.0478515624602
 11
270
 21
160.5478515624602
  0
LINE
  5
1D9
100
AcDbEntity
  8
0
  6
ByLayer
 62
  256
370
   -1
100
AcDbLine
 10
260
 20
160.5478515624602
 11
260
 21
159.0478515624602
  0
LINE
  5
1DA
100
AcDbEntity
  8
0
  6
ByLayer
 62
  256
370
   -1
100
AcDbLine
 10
245
 20
159.0478515624602
 11
245
 21
160.5478515624602
  0
LINE
  5
1DB
100
AcDbEntity
  8
0
  6
ByLayer
 62
  256
370
   -1
100
AcDbLine
 10
235
 20
160.5478515624602
 11
235
 21
159.0478515624602
  0
LINE
  5
1DC
100
AcDbEntity
  8
0
  6
ByLayer
 62
  256
370
   -1
100
AcDbLine
 10
220
 20
159.0478515624602
 11
220
 21
160.5478515624602
  0
LINE
  5
1DD
100
AcDbEntity
  8
0
  6
ByLayer
 62
  256
370
   -1
100
AcDbLine
 10
210
 20
160.5478515624602
 11
210
 21
159.0478515624602
  0
LINE
  5
1DE
100
AcDbEntity
  8
0
  6
ByLayer
 62
  256
370
   -1
100
AcDbLine
 10
195
 20
159.0478515624602
 11
195
 21
160.5478515624602
  0
LINE
  5
1DF
100
AcDbEntity
  8
0
  6
ByLayer
 62
  256
370
   -1
100
AcDbLine
 10
185
 20
160.5478515624602
 11
185
 21
159.0478515624602
  0
LINE
  5
1E0
100
AcDbEntity
  8
0
  6
ByLayer
 62
  256
370
   -1
100
AcDbLine
 10
170
 20
159.0478515624602
 11
170
 21
160.5478515624602
  0
LINE
  5
1E1
100
AcDbEntity
  8
0
  6
ByLayer
 62
  256
370
   -1
100
AcDbLine
 10
160
 20
73.54785156246018
 11
160
 21
160.5478515624602
  0
LINE
  5
1E2
100
AcDbEntity
  8
0
  6
ByLayer
 62
  256
370
   -1
100
AcDbLine
 10
345
 20
77.04785156246018
 11
345
 21
160.5478515624602
  0
LINE
  5
1E3
100
AcDbEntity
  8
0
  6
ByLayer
 62
  256
370
   -1
100
AcDbLine
 10
162
 20
73.54785156246018
 11
160
 21
73.54785156246018
  0
LINE
  5
1E4
100
AcDbEntity
  8
0
  6
ByLayer
 62
  256
370
   -1
100
AcDbLine
 10
420
 20
-241.4521484375398
 11
435
 21
-241.4521484375398
  0
LINE
  5
1E5
100
AcDbEntity
  8
0
  6
ByLayer
 62
  256
370
   -1
100
AcDbLine
 10
435
 20
-241.4521484375398
 11
435
 21
-142.4521484375398
  0
LINE
  5
1E6
100
AcDbEntity
  8
0
  6
ByLayer
 62
  256
370
   -1
100
AcDbLine
 10
390
 20
-241.4521484375398
 11
405
 21
-241.4521484375398
  0
LINE
  5
1E7
100
AcDbEntity
  8
0
  6
ByLayer
 62
  256
370
   -1
100
AcDbLine
 10
466.5
 20
-137.4521484375398
 11
470
 21
-137.4521484375398
  0
LINE
  5
1E8
100
AcDbEntity
  8
0
  6
ByLayer
 62
  256
370
   -1
100
AcDbLine
 10
375.0000000000001
 20
-241.4521484375398
 11
375.0000000000002
 21
-246.4521484375398
  0
LINE
  5
1E9
100
AcDbEntity
  8
0
  6
ByLayer
 62
  256
370
   -1
100
AcDbLine
 10
345.0000000000001
 20
-38.45214843753981
 11
375
 21
-38.45214843753982
  0
LINE
  5
1EA
100
AcDbEntity
  8
Tester
  6
ByLayer
 62
  256
370
   -1
100
AcDbLine
 10
534.0654654519939
 20
121.540283203447
 11
537.5654654519939
 21
121.540283203447
  0
LINE
  5
1EB
100
AcDbEntity
  8
Tester
  6
ByLayer
 62
  256
370
   -1
100
AcDbLine
 10
537.5654654519939
 20
121.540283203447
 11
537.5654654519939
 21
111.540283203447
  0
LINE
  5
1EC
100
AcDbEntity
  8
Tester
  6
ByLayer
 62
  256
370
   -1
100
AcDbLine
 10
537.5654654519939
 20
111.540283203447
 11
534.0654654519939
 21
111.540283203447
  0
LINE
  5
1ED
100
AcDbEntity
  8
Tester
  6
ByLayer
 62
  256
370
   -1
100
AcDbLine
 10
534.0654654519939
 20
111.540283203447
 11
534.0654654519939
 21
96.54028320344699
  0
LINE
  5
1EE
100
AcDbEntity
  8
Tester
  6
ByLayer
 62
  256
370
   -1
100
AcDbLine
 10
534.0654654519939
 20
96.54028320344699
 11
537.5654654519939
 21
96.54028320344699
  0
LINE
  5
1EF
100
AcDbEntity
  8
Tester
  6
ByLayer
 62
  256
370
   -1
100
AcDbLine
 10
537.5654654519939
 20
96.54028320344699
 11
537.5654654519939
 21
86.54028320344698
  0
LINE
  5
1F0
100
AcDbEntity
  8
Tester
  6
ByLayer
 62
  256
370
   -1
100
AcDbLine
 10
537.5654654519939
 20
86.54028320344698
 11
534.0654654519939
 21
86.54028320344698
  0
LINE
  5
1F1
100
AcDbEntity
  8
Tester
  6
ByLayer
 62
  256
370
   -1
100
AcDbLine
 10
534.0654654519939
 20
86.54028320344698
 11
534.0654654519939
 21
71.54028320344698
  0
LINE
  5
1F2
100
AcDbEntity
  8
Tester
  6
ByLayer
 62
  256
370
   -1
100
AcDbLine
 10
534.0654654519939
 20
71.54028320344698
 11
537.5654654519939
 21
71.54028320344698
  0
LINE
  5
1F3
100
AcDbEntity
  8
Tester
  6
ByLayer
 62
  256
370
   -1
100
AcDbLine
 10
537.5654654519939
 20
71.54028320344698
 11
537.5654654519939
 21
61.54028320344698
  0
LINE
  5
1F4
100
AcDbEntity
  8
Tester
  6
ByLayer
 62
  256
370
   -1
100
AcDbLine
 10
537.5654654519939
 20
61.54028320344698
 11
534.0654654519939
 21
61.54028320344698
  0
LINE
  5
1F5
100
AcDbEntity
  8
Tester
  6
ByLayer
 62
  256
370
   -1
100
AcDbLine
 10
534.0654654519939
 20
135.040283203447
 11
534.0654654519939
 21
121.540283203447
  0
LINE
  5
1F6
100
AcDbEntity
  8
Tester
  6
ByLayer
 62
  256
370
   -1
100
AcDbLine
 10
534.0654654519939
 20
61.54028320344698
 11
534.0654654519939
 21
48.04028320344699
  0
LINE
  5
1F7
100
AcDbEntity
  8
Tester
  6
ByLayer
 62
  256
370
   -1
100
AcDbLine
 10
527.3430391824816
 20
135.040283203447
 11
534.0654654519939
 21
135.040283203447
  0
LINE
  5
1F8
100
AcDbEntity
  8
Tester
  6
ByLayer
 62
  256
370
   -1
100
AcDbLine
 10
527.3430391824816
 20
48.04028320344698
 11
534.0654654519939
 21
48.04028320344698
  0
LINE
  5
1F9
100
AcDbEntity
  8
Tester
  6
ByLayer
 62
  256
370
   -1
100
AcDbLine
 10
527.3430391824816
 20
135.040283203447
 11
508.1176757824616
 21
135.040283203447
  0
LINE
  5
1FA
100
AcDbEntity
  8
Tester
  6
ByLayer
 62
  256
370
   -1
100
AcDbLine
 10
508.1176757824616
 20
48.04028320344699
 11
527.3430391824816
 21
48.04028320344699
  0
LINE
  5
1FB
100
AcDbEntity
  8
Tester
  6
ByLayer
 62
  256
370
   -1
100
AcDbLine
 10
508.1176757824616
 20
135.040283203447
 11
508.1176757824616
 21
48.04028320344699
  0
LWPOLYLINE
  5
1FC
100
AcDbEntity
  8
First Cut
  6
ByLayer
 62
  256
370
   -1
100
AcDbPolyline
 90
    5
 70
    1
 43
0
 10
513.8676757824616
 20
71.66576160335623
 10
523.8676757824616
 20
71.66576160335623
 10
523.8676757824616
 20
72.66576160335623
 10
513.8676757824616
 20
72.66576160335623
 10
513.8676757824616
 20
72.66576160335623
  0
LWPOLYLINE
  5
1FD
100
AcDbEntity
  8
First Cut
  6
ByLayer
 62
  256
370
   -1
100
AcDbPolyline
 90
    5
 70
    1
 43
0
 10
513.8676757824616
 20
59.41576160335623
 10
523.8676757824616
 20
59.41576160335623
 10
523.8676757824616
 20
60.41576160335623
 10
513.8676757824616
 20
60.41576160335623
 10
513.8676757824616
 20
60.41576160335623
  0
LWPOLYLINE
  5
1FE
100
AcDbEntity
  8
First Cut
  6
ByLayer
 62
  256
370
   -1
100
AcDbPolyline
 90
    4
 70
    1
 43
0
 10
511.6176757824616
 20
86.66576160335623
 10
511.6176757824616
 20
96.66576160335623
 10
515.1176757824616
 20
96.66576160335623
 10
515.1176757824616
 20
86.66576160335623
  0
LWPOLYLINE
  5
1FF
100
AcDbEntity
  8
First Cut
  6
ByLayer
 62
  256
370
   -1
100
AcDbPolyline
 90
    4
 70
    1
 43
0
 10
511.6176757824616
 20
111.6657616033562
 10
511.6176757824616
 20
121.6657616033562
 10
515.1176757824616
 20
121.6657616033562
 10
515.1176757824616
 20
111.6657616033562
  0
LWPOLYLINE
  5
200
100
AcDbEntity
  8
First Cut
  6
ByLayer
 62
  256
370
   -1
100
AcDbPolyline
 90
    4
 70
    1
 43
0
 10
511.6176757824616
 20
61.66576160335623
 10
511.6176757824616
 20
71.66576160335623
 10
515.1176757824616
 20
71.66576160335623
 10
515.1176757824616
 20
61.66576160335623
  0
LINE
  5
201
100
AcDbEntity
  8
First Cut
  6
ByLayer
 62
  256
370
   -1
100
AcDbLine
 10
527.3430391824816
 20
135.040283203447
 11
527.3430391824816
 21
48.04028320344698
  0
MTEXT
  5
202
100
AcDbEntity
  8
Labels
  6
ByLayer
 62
  256
370
   -1
100
AcDbMText
 10
489.4458007823848
 20
92.66576160364789
 30
0
 40
15
 41
63.3333410476413
 71
    5
 72
    1
  1
Tester
  7
OpenGostTypeA-Regular
210
0
220
0
230
1
 50
270
 73
    2
 44
1
  0
ENDSEC
  0
SECTION
  2
OBJECTS
  0
DICTIONARY
  5
C
330
0
100
AcDbDictionary
281
    1
  3
ACAD_GROUP
350
D
  0
DICTIONARY
  5
D
330
C
100
AcDbDictionary
281
    1
  0
ENDSEC
  0
EOF
